<svg width="910" height="480" viewBox="0 0 910 480" fill="none" xmlns="http://www.w3.org/2000/svg">
<g clip-path="url(#clip0_19_819)">
<path d="M1027.62 -73H-105.694C-119.118 -73 -130 -62.118 -130 -48.6944V595.694C-130 609.118 -119.118 620 -105.694 620H1027.62C1041.05 620 1051.93 609.118 1051.93 595.694V-48.6944C1051.93 -62.118 1041.05 -73 1027.62 -73Z" fill="#2C4645"/>
<path d="M928 470L830 415.5M853.5 498L862 487.5M858.5 484L936 328M836 472.5L815 505.5M779.5 505.5L811.5 458.5L832.843 408.5M932 215.5L900.5 250L886.414 283M930.5 429.5L844.795 380.5M844.795 380.5L869.553 322.5M844.795 380.5L832.843 408.5M930.5 377H892L788 314.764M282.5 27.5L302 -2M282.5 27.5L314.5 43.6939M282.5 27.5L243.329 100.5M930.5 353.5L869.553 322.5M869.553 322.5L871.474 318M929.5 307L886.414 283M886.414 283L871.474 318M799.5 499.5L774.394 484M684.5 428.5L712.5 445.787M764.5 502C764.9 501.2 771.263 489.667 774.394 484M774.394 484L731.472 457.5M740.5 499.5L779.5 440M705.5 499.5L731.472 457.5M731.472 457.5L712.5 445.787M677.5 498.5L712.5 445.787M727 498.5L665.5 460M642 499.5L657.88 472.643M768 264L777.36 245M768 264L728.29 243L698.5 261.205M768 264L742.008 318M928 15.5L892.5 66.1542M783.5 442L815 375.5L738.398 325.5M738.398 325.5L728.29 346.5M738.398 325.5L742.008 318M832.843 408.5L728.29 346.5M728.29 346.5L722.515 358.5M758 427.5L773.245 400M793.618 212L801.5 196L814.465 177.5M793.618 212L825 236.5L834.5 289.5L829.788 298M793.618 212L784.257 231M777.36 245L809 263.593M777.36 245L784.257 231M866.5 231.5C866.5 231.5 868.5 262 864 264C859.5 266 820.5 269.5 816.5 268C812.5 266.5 809 263.593 809 263.593M788 314.764L809 281V263.593M788 314.764L778 308.78M930.5 243L839.5 195L814.465 177.5M814.465 177.5L823.226 165M855.5 225.5L936.5 100.5M932 198.5C932 198.5 888.872 174 882.5 170.5C876.128 167 842.499 137.5 842.499 137.5M842.499 137.5L823.226 165M842.499 137.5L850.558 126M930.5 158.5C930.5 158.5 906.5 145 901 142C895.5 139 863.874 107 863.874 107M863.874 107L892.5 66.1542M863.874 107L861.772 110M930.5 115.5L731.5 -9.5M720.5 408.5L778 308.78M778 308.78L706.5 265.992M646.5 502L591.5 471.127M-20.5 139.5L15 158.216M543.5 499.5L570.5 459.34M570.5 459.34L591.5 471.127M570.5 459.34L504.5 422.292M528 499.5L504.5 485M503.4 499.5L472 480.498M189 318.5L241 343.107M83.5 498L171.985 339.5M186.5 313.5L178.126 328.5M190.5 305.5H196.5L235.995 239.5M385 -9.5L362 28.935M591.5 471.127L639 425M673.761 445.787L710 384.5L713.61 377M673.761 445.787L657.88 472.643M673.761 445.787L644.421 428.5M565.5 382L644.421 428.5M657.88 472.643L543.5 415.5L523 393.5L536 367M644.421 428.5L673.761 380.5M654.5 367L662.737 351M706.5 265.992L698.5 261.205M706.5 265.992L690.022 298M698.5 261.205L693.5 258.213M742.008 318L690.022 298M690.022 298L632.5 265.992M690.022 298L662.737 351M722.515 358.5L618 294.5M722.515 358.5L713.61 377M713.61 377L662.737 351M773.245 400L717.22 369.5M773.245 400L829.788 298M871.474 318L829.788 298M930.5 58L891 37.5V-7M892.5 66.1542L860 44L853.5 -5M853.5 68.5L799.5 146M823.226 165L776.661 126M751.5 156L777.5 125M803.5 94L850.558 126M803.5 94L826.5 49M803.5 94L777.5 125M850.558 126L861.772 110M861.772 110L706 18.3078M671.5 -2L706 18.3078M777.5 125C777.5 125 743 97.5 735 92C727 86.5 659.5 43.5 659.5 43.5M682.5 104C682.5 104 707 59 710 52.5C713 46 706 18.3078 706 18.3078M720.5 113C720.5 113 669 82 662.5 78C656 74 649.5 58.5 653.5 52.5C657.5 46.5 692.5 -11 692.5 -11M651.5 -4.5L500.5 282.5L469.562 327.5M379.5 458.5L354 504M379.5 458.5L409.062 415.5M379.5 458.5L282 401M452 499.5L466.5 477.169M466.5 477.169L445.5 464.461M466.5 477.169L472 480.498M427.5 499.5L445.5 464.461M445.5 464.461L425.736 452.5M445.5 464.461L457.796 441.5M395.5 504L425.736 452.5M425.736 452.5L372.859 420.5M472 480.498L504.5 422.292M504.5 422.292L480.5 408.821M476.5 406.575L328.5 323.5L301 309.001M476.5 406.575L457.796 441.5M476.5 406.575L480.5 408.821M457.796 441.5L409.062 415.5M409.062 415.5L416.281 405M480.5 408.821L499.598 377.5M664 97.5L547 308L543.5 305.5L499.598 377.5M784.257 231C784.257 231 568 105.5 556.5 100C545 94.5 532.5 78 532.5 78M693.5 258.213L719.307 217M693.5 258.213L542.5 167.85M755 160L719.307 217M669 208.5C672.2 211.3 678.667 215.333 681.5 217H719.307M637 258.213C637 258.213 561 212.5 555 208.5C549 204.5 489 157.5 486 154C483 150.5 440.5 122.5 440.5 122.5M621 282.5C571.548 249.987 535.348 227.826 492 204.448M561 389.5L536 367.311M476.5 314.5L536 367.311M536 367.311L499.598 377.5M499.598 377.5L344 294M416.281 405L312.5 346M416.281 405L469.562 327.5M306.5 499.5L328.5 463M287 498L315 452.5M263 499.5L297 444.5M331.5 499.5L186.5 418.5M272 501C242.617 484.919 226.087 473.979 196.5 452.5M193 490.5L3.5 386.5M150 499.5C150.4 499.5 171.5 467.167 182 451M196.5 458.5L174.25 446.662M17 363L152 434.825M116 499.5C116.8 499.5 140.333 456.383 152 434.825M152 434.825L174.25 446.662M59.5 499.5L57.5 471.5L125.5 352.5M34.5 499.5C34.5 498.3 34.5 475 34.5 463.5L101 341.5L150.978 251M139.5 498C138.7 498 44.5 446 -2.5 420M104.5 498L72.5 476.5L-2.5 449M174.25 446.662L164.5 405L-5 313.5M339 467L367.5 417.257M367.5 417.257L351 407.272M367.5 417.257L372.859 420.5M321 458.5L351 407.272M351 407.272L349.85 406.575M306 449.5L334.913 398.918M335.5 397.891L298.5 375.5L301 371.5L241 343.107M335.5 397.891L349.85 406.575M335.5 397.891L334.913 398.918M372.859 420.5L467 263.5M349.85 406.575L449 250.5M334.913 398.918L434 243M440.5 246.5L500.5 142.717M500.5 142.717L447.5 111L415.5 94.8061M500.5 142.717L523 156.181M460.5 258.5L492 204.448M492 204.448C469.791 192.47 445.705 180.173 417 166L287 92.746M484 271.5L542.5 167.85M542.5 167.85L523 156.181M523 156.181L588 51.5M566 39C553 54 526.8 84.3 526 85.5L508.5 75.9779M356 -7L508.5 75.9779M508.5 75.9779L410.5 228M469.562 327.5L356.5 271.5M241 414L301 309.001M301 309.001L272.546 294M241 343.107L272.546 294M272.546 294L267.804 291.5M267.804 291.5L301 233M267.804 291.5L182.451 246.5M362 262L253.648 210M253.648 210L247.664 220M253.648 210L264 192.702M340.5 299.5L235.995 239.5M235.995 239.5L247.664 220M374.5 239.5L267.804 186.344M267.804 186.344L362 28.935M267.804 186.344L264 192.702M355 199.5L415.5 94.8061M415.5 94.8061L314.5 43.6939M102 -11.5L287 92.746M227.5 130L243.329 100.5M287 92.746L314.5 43.6939M462.5 84L362 28.935M401.5 186.344L337 153.5L319 180M247.664 220L164.5 168.698M-19 55.5L97.5 127.367M264 192.702L160.5 120M257.5 148C257.5 148 203.5 236 199 239.5C194.5 243 184 241 184 241M178.126 328.5L171.985 339.5M178.126 328.5L149 306.345M-6.5 210.5L22.5 225.165M92 238.5L-6.5 176.5M2.5 243L171.985 339.5M2.5 268L30 228.957M30 228.957L81.5 255L105 272.876M30 228.957L22.5 225.165M22.5 225.165L60 139.5M84.5 160L97.5 127.367M97.5 127.367L127 79M97.5 127.367L164.5 168.698M160 234.663L182.451 246.5M160 234.663L150.978 251M160 234.663L15 158.216M105 272.876L74 324M105 272.876L149 306.345M149 306.345L182.451 246.5M150.978 251L101 222.5M164.5 168.698L199 117.5M243.329 100.5L191 72.5M15 158.216L31.4674 120M37.5 106L31.4674 120M31.4674 120L-14.5 96M69 47.5C69 46.7 103.333 -1.16667 120.5 -25" stroke="#293946" stroke-width="2" stroke-linecap="round"/>
<path d="M225.5 501.5L387.387 216.5M511.5 -2L387.387 216.5M495.5 501.5L714.027 125.5M789 -3.5L714.027 125.5M887 501.5L387.387 216.5M387.387 216.5L-26 -2.5M933 267L796 193.5L714.027 125.5M714.027 125.5L487.5 -8.5M402.5 501.5L-25 271.5M-3 396.5L238 -8.5M184.5 501.5C195.718 487.641 196.338 473.077 194 443C174.021 391.462 180.5 378 188.5 311C196.5 244 177.5 222.5 145 203.5C112.5 184.5 9 119 38 66.5C67 14 29.5 -2.5 29.5 -2.5" stroke="#293946" stroke-width="6" stroke-linecap="round"/>
<rect y="-77" width="956" height="608" fill="black" fill-opacity="0.5"/>
<path d="M1336.24 -44.2075H-10.0605V165.62H1336.24V-44.2075Z" fill="url(#paint0_linear_19_819)"/>
<path d="M-67.0002 429H1162.51V650.715H-67.0002V429Z" fill="url(#paint1_linear_19_819)"/>
<path d="M203.169 -45.342V659H-18.0011V-45.342H203.169Z" fill="url(#paint2_linear_19_819)"/>
<path d="M715 651.342V-53H936.17V651.342H715Z" fill="url(#paint3_linear_19_819)"/>
<path d="M542.5 448C556.583 448 568 436.583 568 422.5C568 408.417 556.583 397 542.5 397C528.417 397 517 408.417 517 422.5C517 436.583 528.417 448 542.5 448Z" fill="#88BCA4" fill-opacity="0.36"/>
<path d="M541.986 436.909C550.094 436.909 556.667 430.336 556.667 422.227C556.667 414.119 550.094 407.545 541.986 407.545C533.877 407.545 527.304 414.119 527.304 422.227C527.304 430.336 533.877 436.909 541.986 436.909Z" fill="#88BCA4" fill-opacity="0.8"/>
<path style="mix-blend-mode:multiply" d="M556.233 409.275L551.606 406.178C549.032 404.455 545.547 405.145 543.824 407.72L530.002 428.369C528.279 430.943 528.969 434.427 531.543 436.151L536.17 439.247C538.744 440.971 542.228 440.28 543.952 437.706L557.774 417.056C559.497 414.482 558.807 410.998 556.233 409.275Z" fill="url(#paint4_linear_19_819)"/>
<path d="M556.262 415.241C557.037 413.735 557.27 412.824 557.201 411.927C557.088 411.883 556.986 411.815 556.901 411.728C556.816 411.641 556.751 411.537 556.709 411.422L555.856 409.086C555.813 408.967 555.795 408.84 555.802 408.713C555.809 408.586 555.842 408.462 555.898 408.348L555.712 408.122L554.684 409.658L547.831 405.072L548.859 403.536L548.572 403.462C548.489 403.557 548.388 403.635 548.274 403.691C548.16 403.747 548.036 403.778 547.91 403.785L545.422 403.871C545.301 403.877 545.18 403.857 545.067 403.812C544.955 403.767 544.853 403.698 544.77 403.61C543.913 403.887 543.163 404.448 542.063 405.737C539.14 409.182 535.951 415.515 534.961 416.938C529.717 424.566 526.522 429.202 525.952 431.159C525.856 431.571 525.911 432.004 526.107 432.38C526.216 432.396 526.319 432.438 526.41 432.501C527.004 432.899 527.032 433.482 527.767 433.812C528.249 434.03 528.155 434.487 528.038 434.773C528.385 435.096 528.747 435.403 529.098 435.685C529.158 435.662 529.222 435.654 529.285 435.662C529.348 435.669 529.409 435.691 529.462 435.726L533.329 438.314C533.383 438.35 533.427 438.398 533.458 438.455C533.488 438.511 533.505 438.574 533.506 438.639C533.801 438.799 534.112 438.96 534.427 439.114C534.638 438.89 535.051 438.575 535.458 438.96C536.043 439.513 536.593 439.317 537.187 439.715C537.263 439.761 537.328 439.821 537.38 439.893C537.432 439.964 537.469 440.044 537.49 440.13C537.976 440.21 538.474 440.1 538.88 439.823C540.483 438.532 543.54 433.829 548.593 426.073C549.553 424.619 554.197 419.259 556.262 415.241Z" fill="url(#paint5_linear_19_819)"/>
<path d="M554.684 409.659L555.712 408.123C554.167 406.195 551.23 404.229 548.859 403.536L547.831 405.073L554.684 409.659Z" fill="url(#paint6_linear_19_819)"/>
<path d="M555.682 415.191C556.979 412.684 556.708 411.929 556.131 409.952C555.341 407.274 549.78 403.552 547.006 403.845C544.956 404.063 544.157 404.102 542.331 406.255C539.53 409.568 536.444 415.66 535.5 417.036C530.455 424.376 527.379 428.845 526.814 430.724C526.163 432.891 531.757 436.493 531.757 436.493C531.757 436.493 537.215 440.295 538.975 438.864C540.499 437.626 543.451 433.085 548.321 425.618C549.231 424.218 553.69 419.045 555.682 415.191Z" fill="url(#paint7_radial_19_819)"/>
<path d="M541.112 416.628C540.254 416.207 539.346 415.898 538.41 415.707L538.158 416.281C539.119 416.434 540.052 416.73 540.926 417.158C542.777 418.14 544.523 419.309 546.137 420.646C546.872 421.293 547.505 422.045 548.017 422.88L548.449 422.426C547.915 421.632 547.282 420.909 546.563 420.277C544.871 418.883 543.045 417.661 541.112 416.628Z" fill="url(#paint8_linear_19_819)"/>
<path d="M541.039 411.009C542.057 411.194 543.054 411.481 544.015 411.867C546.194 412.774 548.173 414.099 549.842 415.767C550.565 416.508 551.211 417.32 551.77 418.192C551.876 418.339 551.953 418.506 551.998 418.682L552.008 418.668C552.149 418.543 552.265 418.392 552.35 418.222C552.361 418.105 552.281 417.937 552.112 417.675C551.563 416.8 550.925 415.984 550.208 415.24C548.54 413.571 546.56 412.246 544.382 411.34C543.421 410.953 542.423 410.666 541.404 410.484C541.102 410.431 540.912 410.418 540.807 410.473C540.683 410.615 540.587 410.781 540.525 410.959L540.516 410.973C540.691 410.953 540.868 410.965 541.039 411.009Z" fill="url(#paint9_linear_19_819)"/>
<path d="M541.112 416.627C543.044 417.66 544.869 418.881 546.56 420.273C547.275 420.905 547.906 421.626 548.438 422.418L552.017 418.684C551.973 418.508 551.895 418.342 551.789 418.194C551.23 417.323 550.584 416.51 549.861 415.77C548.193 414.101 546.213 412.776 544.034 411.87C543.073 411.483 542.076 411.196 541.058 411.012C540.881 410.969 540.697 410.961 540.517 410.987L538.425 415.716C539.356 415.905 540.259 416.211 541.112 416.627Z" fill="url(#paint10_linear_19_819)"/>
<path d="M532.877 421.757L533.584 422.807L536.944 417.425L540.192 410.561C540.192 410.561 539.039 412.107 537.584 414.458C536.663 415.944 535.47 418.039 534.605 419.326C533.785 420.546 533.193 421.351 532.877 421.757Z" fill="url(#paint11_linear_19_819)"/>
<path d="M544.962 429.835L543.714 429.577L547.406 424.424L552.517 418.806C552.517 418.806 551.526 420.461 549.91 422.7C548.886 424.118 547.407 426.021 546.548 427.309C545.734 428.536 545.202 429.395 544.962 429.835Z" fill="url(#paint12_linear_19_819)"/>
<path d="M532.521 422.223L533.184 423.42L530.346 427.903C529.909 428.333 529.427 428.714 528.909 429.04C528.43 429.389 527.913 429.682 527.368 429.916C527.368 429.916 531.306 423.8 532.521 422.223Z" fill="url(#paint13_linear_19_819)"/>
<path d="M544.664 430.341L543.314 430.173L540.253 434.504C540.025 435.071 539.856 435.661 539.751 436.263C539.61 436.839 539.536 437.429 539.529 438.022C539.529 438.022 543.67 432.062 544.664 430.341Z" fill="url(#paint14_linear_19_819)"/>
<path d="M527.77 433.823C527.036 433.493 527.007 432.91 526.413 432.513C526.323 432.449 526.219 432.408 526.11 432.391C526.461 433.176 527.215 434.022 528.042 434.784C528.159 434.498 528.243 434.035 527.77 433.823Z" fill="#D60D26"/>
<path d="M535.455 438.967C535.04 438.578 534.634 438.897 534.424 439.12C535.456 439.626 536.57 440.054 537.486 440.137C537.465 440.052 537.428 439.971 537.376 439.899C537.324 439.828 537.259 439.768 537.183 439.722C536.589 439.324 536.05 439.514 535.455 438.967Z" fill="#D60D26"/>
<path d="M542.839 409.899C542.839 409.899 545.341 408.607 546.015 407.933C546.524 407.424 547.549 405.494 547.549 405.494C547.549 405.494 546.275 407.136 545.789 407.62C545.109 408.262 542.839 409.899 542.839 409.899Z" fill="url(#paint15_linear_19_819)"/>
<path d="M552.132 416.118C552.132 416.118 552.375 413.314 552.741 412.435C553.015 411.768 554.401 410.08 554.401 410.08C554.401 410.08 553.372 411.885 553.107 412.518C552.782 413.397 552.132 416.118 552.132 416.118Z" fill="url(#paint16_linear_19_819)"/>
<path style="mix-blend-mode:screen" d="M551.779 418.198C551.22 417.327 550.574 416.515 549.851 415.774C549.463 415.375 549.053 414.998 548.623 414.644C546.503 415.149 543.437 416.573 542.155 417.197C543.702 418.108 545.176 419.138 546.564 420.276C547.279 420.908 547.91 421.629 548.442 422.421L552.017 418.685C551.969 418.509 551.888 418.344 551.779 418.198Z" fill="url(#paint17_linear_19_819)"/>
<path d="M543.503 418.946C539.994 416.479 538.15 416.618 538.15 416.618C538.15 416.618 529.264 429.983 528.961 431.026C528.756 431.736 531.153 433.026 532.518 434.082L533.698 434.871C535.199 435.724 537.308 437.45 537.879 436.995C538.732 436.31 547.699 423.01 547.699 423.01C547.699 423.01 547.134 421.257 543.503 418.946Z" fill="url(#paint18_linear_19_819)"/>
<path d="M547.719 404.041C547.719 404.041 544.843 403.689 542.994 405.948C542.035 407.092 541.139 408.287 540.31 409.528C540.31 409.528 544.999 404.117 547.719 404.041Z" fill="url(#paint19_linear_19_819)"/>
<path d="M555.688 409.375C555.688 409.375 557.114 411.902 555.729 414.465C555.037 415.787 554.274 417.072 553.444 418.312C553.444 418.312 556.654 411.919 555.688 409.375Z" fill="url(#paint20_linear_19_819)"/>
<path d="M552.262 419.105C552.262 419.105 552.757 419.595 552.437 420.073C552.117 420.55 550.908 421.148 551.308 420.525C551.592 420.03 551.911 419.555 552.262 419.105Z" fill="url(#paint21_linear_19_819)"/>
<path d="M553.591 421.506C553.794 421.203 552.6 419.83 552.484 419.918C552.439 419.879 552.384 419.851 552.326 419.839C552.267 419.826 552.206 419.828 552.148 419.844C552.091 419.861 552.038 419.892 551.995 419.934C551.952 419.976 551.921 420.028 551.903 420.085C552.58 420.437 553.102 421.027 553.369 421.742C553.423 421.724 553.471 421.693 553.51 421.652C553.549 421.611 553.577 421.56 553.591 421.506Z" fill="url(#paint22_linear_19_819)"/>
<path d="M551.868 420.062C551.833 420.137 551.807 420.216 551.792 420.298C552.447 420.608 552.971 421.141 553.268 421.803C553.314 421.797 553.36 421.785 553.403 421.768C553.118 421.03 552.572 420.423 551.868 420.062Z" fill="url(#paint23_linear_19_819)"/>
<path d="M539.958 410.869C539.958 410.869 539.328 410.606 538.994 411.075C538.661 411.543 538.583 412.899 539.007 412.291C539.358 411.841 539.676 411.365 539.958 410.869Z" fill="url(#paint24_linear_19_819)"/>
<path d="M537.234 410.558C537.437 410.255 539.159 410.834 539.122 410.974C539.176 411.001 539.222 411.042 539.256 411.091C539.29 411.14 539.311 411.198 539.318 411.257C539.324 411.317 539.316 411.377 539.294 411.433C539.271 411.488 539.235 411.537 539.189 411.576C538.606 411.085 537.862 410.828 537.101 410.853C537.096 410.797 537.105 410.74 537.129 410.688C537.152 410.636 537.188 410.591 537.234 410.558Z" fill="url(#paint25_linear_19_819)"/>
<path d="M539.213 411.593C539.156 411.653 539.094 411.707 539.027 411.755C538.488 411.274 537.796 410.998 537.074 410.978C537.062 410.933 537.055 410.887 537.055 410.84C537.842 410.818 538.61 411.086 539.213 411.593Z" fill="url(#paint26_linear_19_819)"/>
<path d="M535.134 416.732C535.094 416.706 535.046 416.697 535 416.707C534.954 416.716 534.913 416.743 534.887 416.783L534.063 418.013C534.037 418.052 534.028 418.1 534.037 418.146C534.046 418.192 534.073 418.232 534.112 418.259L535.134 416.732Z" fill="#595959"/>
<path d="M530.936 422.841C530.897 422.814 530.849 422.805 530.803 422.814C530.757 422.823 530.717 422.85 530.691 422.889L529.867 424.12C529.853 424.139 529.844 424.161 529.839 424.184C529.835 424.207 529.834 424.23 529.839 424.253C529.843 424.277 529.852 424.298 529.865 424.318C529.878 424.338 529.894 424.354 529.914 424.367L530.936 422.841Z" fill="#595959"/>
<path d="M548.739 425.84C548.779 425.866 548.806 425.907 548.816 425.954C548.825 426.001 548.815 426.049 548.789 426.089L547.965 427.32C547.938 427.358 547.897 427.385 547.851 427.394C547.805 427.403 547.757 427.393 547.718 427.366L548.739 425.84Z" fill="#595959"/>
<path d="M544.692 432.048C544.731 432.074 544.758 432.114 544.767 432.161C544.777 432.207 544.768 432.255 544.742 432.294L543.919 433.525C543.892 433.565 543.851 433.592 543.804 433.601C543.758 433.611 543.709 433.601 543.67 433.574L544.692 432.048Z" fill="#595959"/>
<path d="M544.547 410.397C544.792 410.534 545.006 410.482 545.259 410.624C545.269 410.629 545.28 410.63 545.291 410.628C545.302 410.625 545.312 410.619 545.319 410.61C545.325 410.601 545.327 410.589 545.325 410.578C545.323 410.567 545.316 410.558 545.307 410.552C545.06 410.416 544.844 410.467 544.593 410.327C544.584 410.321 544.573 410.318 544.562 410.321C544.551 410.323 544.541 410.329 544.535 410.338C544.532 410.343 544.529 410.348 544.528 410.354C544.527 410.359 544.526 410.365 544.528 410.37C544.529 410.376 544.531 410.381 544.534 410.386C544.538 410.39 544.542 410.394 544.547 410.397Z" fill="#9E9E9E"/>
<path d="M545.215 410.694C544.97 410.557 544.753 410.608 544.503 410.468C544.498 410.464 544.493 410.462 544.487 410.461C544.482 410.46 544.476 410.46 544.47 410.461C544.465 410.463 544.459 410.465 544.455 410.469C544.45 410.472 544.446 410.476 544.443 410.482C544.44 410.486 544.437 410.491 544.436 410.496C544.435 410.502 544.435 410.507 544.436 410.513C544.437 410.518 544.44 410.523 544.443 410.528C544.447 410.532 544.451 410.535 544.457 410.537C544.702 410.675 544.916 410.622 545.169 410.764C545.179 410.77 545.19 410.772 545.201 410.769C545.213 410.767 545.222 410.76 545.228 410.75C545.232 410.746 545.234 410.741 545.235 410.736C545.235 410.73 545.235 410.725 545.234 410.72C545.233 410.714 545.231 410.709 545.227 410.705C545.224 410.701 545.22 410.697 545.215 410.694Z" fill="#9E9E9E"/>
<path d="M545.127 410.826C544.881 410.688 544.665 410.739 544.415 410.599C544.405 410.593 544.393 410.591 544.382 410.594C544.371 410.597 544.361 410.603 544.355 410.613C544.352 410.617 544.349 410.622 544.348 410.628C544.347 410.633 544.347 410.639 544.348 410.644C544.349 410.65 544.352 410.655 544.355 410.659C544.359 410.663 544.363 410.667 544.368 410.669C544.614 410.806 544.828 410.754 545.08 410.896C545.09 410.901 545.102 410.903 545.113 410.901C545.124 410.898 545.134 410.891 545.14 410.882C545.143 410.877 545.145 410.872 545.146 410.867C545.147 410.862 545.147 410.856 545.146 410.851C545.145 410.846 545.142 410.841 545.139 410.836C545.136 410.832 545.132 410.828 545.127 410.826Z" fill="#9E9E9E"/>
<path d="M551.002 414.718C550.782 414.544 550.749 414.326 550.521 414.146C550.512 414.139 550.507 414.129 550.505 414.118C550.503 414.107 550.505 414.095 550.511 414.086C550.517 414.076 550.527 414.07 550.538 414.068C550.548 414.066 550.56 414.068 550.569 414.074C550.788 414.251 550.824 414.471 551.049 414.648C551.058 414.655 551.065 414.664 551.067 414.675C551.069 414.686 551.067 414.697 551.06 414.707C551.058 414.712 551.054 414.716 551.049 414.719C551.045 414.722 551.039 414.725 551.034 414.726C551.028 414.727 551.023 414.727 551.017 414.726C551.012 414.724 551.006 414.722 551.002 414.718Z" fill="#9E9E9E"/>
<path d="M550.475 414.216C550.696 414.391 550.731 414.61 550.956 414.788C550.961 414.791 550.965 414.795 550.968 414.8C550.972 414.805 550.974 414.81 550.975 414.816C550.975 414.822 550.975 414.828 550.974 414.833C550.972 414.839 550.97 414.844 550.966 414.849C550.964 414.854 550.96 414.858 550.955 414.861C550.951 414.864 550.946 414.866 550.94 414.867C550.935 414.868 550.929 414.868 550.924 414.866C550.918 414.865 550.914 414.862 550.909 414.858C550.689 414.683 550.656 414.465 550.428 414.286C550.419 414.279 550.413 414.269 550.411 414.258C550.409 414.247 550.412 414.235 550.418 414.225C550.421 414.221 550.425 414.217 550.43 414.214C550.434 414.211 550.439 414.209 550.445 414.208C550.45 414.208 550.455 414.208 550.461 414.209C550.466 414.211 550.471 414.213 550.475 414.216Z" fill="#9E9E9E"/>
<path d="M550.388 414.347C550.609 414.522 550.644 414.741 550.869 414.919C550.878 414.926 550.885 414.936 550.886 414.947C550.888 414.959 550.886 414.97 550.879 414.98C550.877 414.985 550.873 414.989 550.868 414.992C550.864 414.995 550.859 414.997 550.853 414.998C550.848 414.999 550.842 414.999 550.837 414.997C550.832 414.996 550.827 414.993 550.823 414.989C550.602 414.814 550.569 414.597 550.341 414.417C550.332 414.41 550.326 414.4 550.324 414.389C550.322 414.378 550.325 414.366 550.331 414.357C550.334 414.352 550.338 414.348 550.343 414.345C550.347 414.342 550.353 414.34 550.358 414.339C550.363 414.339 550.368 414.339 550.374 414.34C550.379 414.342 550.384 414.344 550.388 414.347Z" fill="#9E9E9E"/>
<path d="M533.324 438.321L529.465 435.737C529.412 435.702 529.351 435.68 529.288 435.673C529.224 435.666 529.16 435.674 529.101 435.696C530.237 436.615 531.241 437.264 531.241 437.264C531.241 437.264 532.219 437.945 533.502 438.645C533.5 438.581 533.484 438.518 533.453 438.461C533.422 438.405 533.378 438.357 533.324 438.321Z" fill="url(#paint27_linear_19_819)"/>
<path d="M556.131 409.952C556.4 410.871 556.603 411.526 556.61 412.216C556.773 412.16 557.036 411.867 557.197 411.934C557.097 411.198 556.92 410.474 556.668 409.775C556.495 409.259 556.235 408.776 555.898 408.348C555.8 408.558 555.727 408.78 555.683 409.007C555.873 409.301 556.024 409.619 556.131 409.952Z" fill="url(#paint28_radial_19_819)"/>
<path d="M547.014 403.851C546.06 403.951 545.379 404.015 544.736 404.27C544.728 404.099 544.899 403.744 544.775 403.621C545.493 403.431 546.229 403.318 546.971 403.285C547.512 403.249 548.056 403.304 548.579 403.45C548.423 403.621 548.246 403.773 548.053 403.902C547.711 403.838 547.362 403.821 547.014 403.851Z" fill="url(#paint29_radial_19_819)"/>
<path style="mix-blend-mode:screen" d="M533.184 423.42L532.521 422.223C531.858 423.086 530.373 425.305 529.171 427.147C530.029 426.908 531.01 426.275 531.961 425.352L533.184 423.42Z" fill="url(#paint30_linear_19_819)"/>
<path style="mix-blend-mode:screen" d="M534.416 419.604C535.085 419.331 535.71 418.962 536.273 418.508L536.947 417.427L540.192 410.561C540.192 410.561 539.039 412.107 537.584 414.458C536.663 415.944 535.47 418.039 534.605 419.326C534.541 419.422 534.478 419.511 534.416 419.604Z" fill="url(#paint31_linear_19_819)"/>
<path style="mix-blend-mode:screen" d="M543.34 430.191L544.692 430.359C544.147 431.304 542.658 433.514 541.421 435.326C541.315 434.441 541.526 433.293 542.016 432.062L543.34 430.191Z" fill="url(#paint32_linear_19_819)"/>
<path style="mix-blend-mode:screen" d="M546.381 427.606C546.38 426.884 546.484 426.165 546.689 425.473L547.431 424.441L552.541 418.822C552.541 418.822 551.551 420.478 549.934 422.717C548.916 424.138 547.432 426.037 546.574 427.319C546.505 427.422 546.444 427.513 546.381 427.606Z" fill="url(#paint33_linear_19_819)"/>
<path d="M551.049 410.648L547.935 408.564L547.84 408.706L550.953 410.79L551.049 410.648Z" fill="url(#paint34_linear_19_819)"/>
<path d="M550.819 410.988L547.705 408.904L547.61 409.046L550.724 411.13L550.819 410.988Z" fill="url(#paint35_linear_19_819)"/>
<path d="M550.591 411.331L547.478 409.247L547.383 409.389L550.496 411.473L550.591 411.331Z" fill="url(#paint36_linear_19_819)"/>
<path d="M550.364 411.671L547.25 409.587L547.155 409.729L550.269 411.813L550.364 411.671Z" fill="url(#paint37_linear_19_819)"/>
<path d="M529.119 430.763C528.455 431.203 527.865 431.744 527.37 432.367C527.165 432.568 528.028 433.452 529.263 434.728C530.174 435.752 533.03 437.671 534.328 438.118C535.975 438.778 537.083 439.236 537.241 438.913C537.632 438.246 537.908 437.518 538.056 436.758C536.278 436.307 534.597 435.541 533.091 434.495C531.561 433.491 530.217 432.228 529.119 430.763Z" fill="url(#paint38_linear_19_819)"/>
<path style="mix-blend-mode:screen" d="M538.141 436.813C536.363 436.368 534.68 435.608 533.17 434.569C532.704 434.257 532.286 433.944 531.9 433.632C530.394 433.069 528.615 433.498 528.199 433.615C528.568 434.028 528.957 434.423 529.365 434.797C530.282 435.818 533.142 437.726 534.428 438.185C535.365 438.563 536.344 438.827 537.344 438.973C537.296 439.13 537.901 438.053 538.141 436.813Z" fill="url(#paint39_linear_19_819)"/>
<rect x="10" y="248" width="80" height="17" rx="4" fill="#333842"/>
<g filter="url(#filter0_d_19_819)">
<g clip-path="url(#clip1_19_819)">
<path d="M18.0915 254.44L15.6991 254.748L15.6567 254.756C15.5926 254.771 15.5341 254.801 15.4872 254.842C15.4404 254.884 15.4069 254.936 15.3901 254.993C15.3733 255.05 15.3739 255.11 15.3917 255.166C15.4096 255.223 15.4441 255.275 15.4917 255.316L17.2249 256.811L16.8162 258.924L16.8113 258.961C16.8074 259.02 16.8212 259.079 16.8512 259.131C16.8813 259.184 16.9266 259.228 16.9824 259.26C17.0383 259.292 17.1027 259.31 17.1691 259.313C17.2355 259.315 17.3015 259.302 17.3603 259.275L19.5 258.277L21.6348 259.275L21.6723 259.29C21.7342 259.312 21.8015 259.318 21.8672 259.309C21.933 259.3 21.9948 259.276 22.0464 259.239C22.098 259.202 22.1375 259.153 22.1609 259.098C22.1843 259.042 22.1906 258.983 22.1793 258.924L21.7702 256.811L23.5042 255.315L23.5334 255.287C23.5752 255.241 23.6026 255.187 23.6128 255.129C23.623 255.071 23.6157 255.011 23.5916 254.956C23.5675 254.902 23.5274 254.853 23.4755 254.817C23.4236 254.78 23.3617 254.757 23.2961 254.748L20.9036 254.44L19.8341 252.519C19.8032 252.463 19.7553 252.416 19.6958 252.383C19.6364 252.35 19.5678 252.333 19.4978 252.333C19.4278 252.333 19.3591 252.35 19.2997 252.383C19.2402 252.416 19.1923 252.463 19.1614 252.519L18.0915 254.44Z" fill="#C9E3CA"/>
</g>
</g>
<path d="M29.692 260V258.81H26.502V257.685L28.807 252.8H30.182L27.877 257.685H29.692V255.81H30.912V257.685H31.587V258.81H30.912V260H29.692ZM32.7906 260V258.765H34.0256V260H32.7906ZM35.4277 259.99V258.94L38.5077 256.195C38.7477 255.982 38.9144 255.78 39.0077 255.59C39.1011 255.4 39.1477 255.217 39.1477 255.04C39.1477 254.8 39.0961 254.587 38.9927 254.4C38.8894 254.21 38.7461 254.06 38.5627 253.95C38.3827 253.84 38.1744 253.785 37.9377 253.785C37.6877 253.785 37.4661 253.843 37.2727 253.96C37.0827 254.073 36.9344 254.225 36.8277 254.415C36.7211 254.605 36.6711 254.81 36.6777 255.03H35.4377C35.4377 254.55 35.5444 254.132 35.7577 253.775C35.9744 253.418 36.2711 253.142 36.6477 252.945C37.0277 252.748 37.4661 252.65 37.9627 252.65C38.4227 252.65 38.8361 252.753 39.2027 252.96C39.5694 253.163 39.8577 253.447 40.0677 253.81C40.2777 254.17 40.3827 254.585 40.3827 255.055C40.3827 255.398 40.3361 255.687 40.2427 255.92C40.1494 256.153 40.0094 256.368 39.8227 256.565C39.6394 256.762 39.4111 256.98 39.1377 257.22L36.9527 259.155L36.8427 258.855H40.3827V259.99H35.4277ZM44.2367 257.585C44.0267 257.585 43.8484 257.515 43.7017 257.375C43.5584 257.235 43.4867 257.06 43.4867 256.85C43.4867 256.64 43.5584 256.465 43.7017 256.325C43.8484 256.185 44.0267 256.115 44.2367 256.115C44.4301 256.115 44.5967 256.185 44.7367 256.325C44.8801 256.465 44.9517 256.64 44.9517 256.85C44.9517 257.06 44.8801 257.235 44.7367 257.375C44.5967 257.515 44.4301 257.585 44.2367 257.585ZM49.5047 260V254.115L48.1547 254.94V253.61L49.5047 252.8H50.7347V260H49.5047ZM54.7745 260.15C54.4078 260.15 54.0661 260.075 53.7495 259.925C53.4328 259.772 53.1595 259.562 52.9295 259.295C52.7028 259.028 52.5395 258.718 52.4395 258.365L53.5995 258.055C53.6461 258.248 53.7311 258.415 53.8545 258.555C53.9811 258.695 54.1278 258.803 54.2945 258.88C54.4645 258.957 54.6395 258.995 54.8195 258.995C55.0528 258.995 55.2661 258.938 55.4595 258.825C55.6528 258.712 55.8061 258.56 55.9195 258.37C56.0328 258.177 56.0895 257.963 56.0895 257.73C56.0895 257.497 56.0311 257.285 55.9145 257.095C55.8011 256.902 55.6478 256.75 55.4545 256.64C55.2611 256.527 55.0495 256.47 54.8195 256.47C54.5428 256.47 54.3128 256.52 54.1295 256.62C53.9495 256.72 53.8111 256.827 53.7145 256.94L52.6845 256.61L52.9045 252.8H56.8145V253.93H53.5495L53.9995 253.505L53.8395 256.155L53.6195 255.885C53.8061 255.715 54.0228 255.588 54.2695 255.505C54.5161 255.422 54.7545 255.38 54.9845 255.38C55.4345 255.38 55.8328 255.483 56.1795 255.69C56.5295 255.893 56.8028 256.172 56.9995 256.525C57.1995 256.878 57.2995 257.28 57.2995 257.73C57.2995 258.18 57.1828 258.588 56.9495 258.955C56.7161 259.318 56.4078 259.608 56.0245 259.825C55.6445 260.042 55.2278 260.15 54.7745 260.15ZM58.6988 260V258.765H59.9338V260H58.6988ZM64.1259 260.15C63.6159 260.15 63.1659 260.042 62.7759 259.825C62.3859 259.605 62.0809 259.3 61.8609 258.91C61.6443 258.52 61.5359 258.07 61.5359 257.56V255.24C61.5359 254.73 61.6443 254.28 61.8609 253.89C62.0809 253.5 62.3859 253.197 62.7759 252.98C63.1659 252.76 63.6159 252.65 64.1259 252.65C64.6359 252.65 65.0843 252.76 65.4709 252.98C65.8609 253.197 66.1659 253.5 66.3859 253.89C66.6059 254.28 66.7159 254.73 66.7159 255.24V257.56C66.7159 258.07 66.6059 258.52 66.3859 258.91C66.1659 259.3 65.8609 259.605 65.4709 259.825C65.0843 260.042 64.6359 260.15 64.1259 260.15ZM64.1259 259.005C64.3793 259.005 64.6093 258.945 64.8159 258.825C65.0226 258.702 65.1859 258.538 65.3059 258.335C65.4259 258.128 65.4859 257.898 65.4859 257.645V255.15C65.4859 254.893 65.4259 254.663 65.3059 254.46C65.1859 254.253 65.0226 254.09 64.8159 253.97C64.6093 253.847 64.3793 253.785 64.1259 253.785C63.8726 253.785 63.6426 253.847 63.4359 253.97C63.2293 254.09 63.0659 254.253 62.9459 254.46C62.8259 254.663 62.7659 254.893 62.7659 255.15V257.645C62.7659 257.898 62.8259 258.128 62.9459 258.335C63.0659 258.538 63.2293 258.702 63.4359 258.825C63.6426 258.945 63.8726 259.005 64.1259 259.005ZM70.1099 260L70.1199 252.8H71.3399V257.2L73.3149 254.6H74.8199L72.7249 257.3L74.9999 260H73.4049L71.3399 257.4V260H70.1099ZM81.9858 260V256.72C81.9858 256.35 81.8941 256.062 81.7108 255.855C81.5274 255.645 81.2791 255.54 80.9658 255.54C80.7724 255.54 80.5991 255.585 80.4458 255.675C80.2924 255.762 80.1708 255.892 80.0808 256.065C79.9908 256.235 79.9458 256.438 79.9458 256.675L79.4108 256.36C79.4074 255.987 79.4908 255.658 79.6608 255.375C79.8341 255.088 80.0674 254.865 80.3608 254.705C80.6541 254.545 80.9808 254.465 81.3408 254.465C81.9374 254.465 82.3941 254.645 82.7108 255.005C83.0308 255.362 83.1908 255.832 83.1908 256.415V260H81.9858ZM75.4908 260V254.6H76.5558V256.275H76.7058V260H75.4908ZM78.7458 260V256.735C78.7458 256.358 78.6541 256.065 78.4708 255.855C78.2874 255.645 78.0374 255.54 77.7208 255.54C77.4141 255.54 77.1674 255.645 76.9808 255.855C76.7974 256.065 76.7058 256.338 76.7058 256.675L76.1658 256.315C76.1658 255.965 76.2524 255.65 76.4258 255.37C76.5991 255.09 76.8324 254.87 77.1258 254.71C77.4224 254.547 77.7541 254.465 78.1208 254.465C78.5241 254.465 78.8608 254.552 79.1308 254.725C79.4041 254.895 79.6074 255.128 79.7408 255.425C79.8774 255.718 79.9458 256.05 79.9458 256.42V260H78.7458Z" fill="white"/>
<path d="M52.3641 269.636C54.0164 271.288 54.9614 273.518 54.9993 275.854C55.0372 278.191 54.1649 280.45 52.5671 282.155L52.3641 282.365L48.1211 286.607C47.5827 287.145 46.8599 287.458 46.0992 287.483C45.3385 287.508 44.5967 287.243 44.0241 286.742L43.8801 286.607L39.6361 282.364C37.9482 280.676 37 278.387 37 276C37 273.613 37.9482 271.324 39.6361 269.636C41.3239 267.948 43.6131 267 46.0001 267C48.387 267 50.6762 267.948 52.3641 269.636ZM46.0001 273C45.6061 273 45.216 273.078 44.852 273.228C44.488 273.379 44.1573 273.6 43.8787 273.879C43.6002 274.157 43.3792 274.488 43.2284 274.852C43.0777 275.216 43.0001 275.606 43.0001 276C43.0001 276.394 43.0777 276.784 43.2284 277.148C43.3792 277.512 43.6002 277.843 43.8787 278.121C44.1573 278.4 44.488 278.621 44.852 278.772C45.216 278.922 45.6061 279 46.0001 279C46.7957 279 47.5588 278.684 48.1214 278.121C48.684 277.559 49.0001 276.796 49.0001 276C49.0001 275.204 48.684 274.441 48.1214 273.879C47.5588 273.316 46.7957 273 46.0001 273Z" fill="#C9E3CA"/>
<rect x="830" y="260" width="78" height="17" rx="4" fill="#333842"/>
<g filter="url(#filter1_d_19_819)">
<g clip-path="url(#clip2_19_819)">
<path d="M838.092 266.44L835.699 266.748L835.657 266.756C835.593 266.771 835.534 266.801 835.487 266.842C835.44 266.884 835.407 266.936 835.39 266.993C835.373 267.05 835.374 267.11 835.392 267.166C835.41 267.223 835.444 267.275 835.492 267.316L837.225 268.811L836.816 270.924L836.811 270.961C836.807 271.02 836.821 271.079 836.851 271.131C836.881 271.184 836.927 271.228 836.982 271.26C837.038 271.292 837.103 271.31 837.169 271.313C837.236 271.315 837.301 271.302 837.36 271.275L839.5 270.277L841.635 271.275L841.672 271.29C841.734 271.312 841.802 271.318 841.867 271.309C841.933 271.3 841.995 271.276 842.046 271.239C842.098 271.202 842.138 271.153 842.161 271.098C842.184 271.042 842.191 270.983 842.179 270.924L841.77 268.811L843.504 267.315L843.533 267.287C843.575 267.241 843.603 267.187 843.613 267.129C843.623 267.071 843.616 267.011 843.592 266.956C843.567 266.902 843.527 266.853 843.475 266.817C843.424 266.78 843.362 266.757 843.296 266.748L840.904 266.44L839.834 264.519C839.803 264.463 839.755 264.416 839.696 264.383C839.636 264.35 839.568 264.333 839.498 264.333C839.428 264.333 839.359 264.35 839.3 264.383C839.24 264.416 839.192 264.463 839.161 264.519L838.092 266.44Z" fill="#C9E3CA"/>
</g>
</g>
<path d="M849.692 272V270.81H846.502V269.685L848.807 264.8H850.182L847.877 269.685H849.692V267.81H850.912V269.685H851.587V270.81H850.912V272H849.692ZM852.791 272V270.765H854.026V272H852.791ZM855.993 272L858.473 265.94H855.328V264.8H859.763V265.94L857.293 272H855.993ZM863.612 269.585C863.402 269.585 863.223 269.515 863.077 269.375C862.933 269.235 862.862 269.06 862.862 268.85C862.862 268.64 862.933 268.465 863.077 268.325C863.223 268.185 863.402 268.115 863.612 268.115C863.805 268.115 863.972 268.185 864.112 268.325C864.255 268.465 864.327 268.64 864.327 268.85C864.327 269.06 864.255 269.235 864.112 269.375C863.972 269.515 863.805 269.585 863.612 269.585ZM868.88 272V266.115L867.53 266.94V265.61L868.88 264.8H870.11V272H868.88ZM871.814 271.99V270.94L874.894 268.195C875.134 267.982 875.301 267.78 875.394 267.59C875.488 267.4 875.534 267.217 875.534 267.04C875.534 266.8 875.483 266.587 875.379 266.4C875.276 266.21 875.133 266.06 874.949 265.95C874.769 265.84 874.561 265.785 874.324 265.785C874.074 265.785 873.853 265.843 873.659 265.96C873.469 266.073 873.321 266.225 873.214 266.415C873.108 266.605 873.058 266.81 873.064 267.03H871.824C871.824 266.55 871.931 266.132 872.144 265.775C872.361 265.418 872.658 265.142 873.034 264.945C873.414 264.748 873.853 264.65 874.349 264.65C874.809 264.65 875.223 264.753 875.589 264.96C875.956 265.163 876.244 265.447 876.454 265.81C876.664 266.17 876.769 266.585 876.769 267.055C876.769 267.398 876.723 267.687 876.629 267.92C876.536 268.153 876.396 268.368 876.209 268.565C876.026 268.762 875.798 268.98 875.524 269.22L873.339 271.155L873.229 270.855H876.769V271.99H871.814ZM878.171 272V270.765H879.406V272H878.171ZM883.999 272V270.81H880.809V269.685L883.114 264.8H884.489L882.184 269.685H883.999V267.81H885.219V269.685H885.894V270.81H885.219V272H883.999ZM889.085 272L889.095 264.8H890.315V269.2L892.29 266.6H893.795L891.7 269.3L893.975 272H892.38L890.315 269.4V272H889.085ZM900.96 272V268.72C900.96 268.35 900.869 268.062 900.685 267.855C900.502 267.645 900.254 267.54 899.94 267.54C899.747 267.54 899.574 267.585 899.42 267.675C899.267 267.762 899.145 267.892 899.055 268.065C898.965 268.235 898.92 268.438 898.92 268.675L898.385 268.36C898.382 267.987 898.465 267.658 898.635 267.375C898.809 267.088 899.042 266.865 899.335 266.705C899.629 266.545 899.955 266.465 900.315 266.465C900.912 266.465 901.369 266.645 901.685 267.005C902.005 267.362 902.165 267.832 902.165 268.415V272H900.96ZM894.465 272V266.6H895.53V268.275H895.68V272H894.465ZM897.72 272V268.735C897.72 268.358 897.629 268.065 897.445 267.855C897.262 267.645 897.012 267.54 896.695 267.54C896.389 267.54 896.142 267.645 895.955 267.855C895.772 268.065 895.68 268.338 895.68 268.675L895.14 268.315C895.14 267.965 895.227 267.65 895.4 267.37C895.574 267.09 895.807 266.87 896.1 266.71C896.397 266.547 896.729 266.465 897.095 266.465C897.499 266.465 897.835 266.552 898.105 266.725C898.379 266.895 898.582 267.128 898.715 267.425C898.852 267.718 898.92 268.05 898.92 268.42V272H897.72Z" fill="white"/>
<path d="M872.364 281.636C874.016 283.288 874.961 285.518 874.999 287.854C875.037 290.191 874.165 292.45 872.567 294.155L872.364 294.365L868.121 298.607C867.583 299.145 866.86 299.458 866.099 299.483C865.338 299.508 864.597 299.243 864.024 298.742L863.88 298.607L859.636 294.364C857.948 292.676 857 290.387 857 288C857 285.613 857.948 283.324 859.636 281.636C861.324 279.948 863.613 279 866 279C868.387 279 870.676 279.948 872.364 281.636ZM866 285C865.606 285 865.216 285.078 864.852 285.228C864.488 285.379 864.157 285.6 863.879 285.879C863.6 286.157 863.379 286.488 863.228 286.852C863.078 287.216 863 287.606 863 288C863 288.394 863.078 288.784 863.228 289.148C863.379 289.512 863.6 289.843 863.879 290.121C864.157 290.4 864.488 290.621 864.852 290.772C865.216 290.922 865.606 291 866 291C866.796 291 867.559 290.684 868.121 290.121C868.684 289.559 869 288.796 869 288C869 287.204 868.684 286.441 868.121 285.879C867.559 285.316 866.796 285 866 285Z" fill="#C9E3CA"/>
<rect x="816" y="424" width="74" height="17" rx="4" fill="#333842"/>
<g filter="url(#filter2_d_19_819)">
<g clip-path="url(#clip3_19_819)">
<path d="M824.092 430.44L821.699 430.748L821.657 430.756C821.593 430.771 821.534 430.801 821.487 430.842C821.44 430.884 821.407 430.936 821.39 430.993C821.373 431.05 821.374 431.11 821.392 431.166C821.41 431.223 821.444 431.275 821.492 431.316L823.225 432.811L822.816 434.924L822.811 434.961C822.807 435.02 822.821 435.079 822.851 435.131C822.881 435.184 822.927 435.228 822.982 435.26C823.038 435.292 823.103 435.31 823.169 435.313C823.236 435.315 823.301 435.302 823.36 435.275L825.5 434.277L827.635 435.275L827.672 435.29C827.734 435.312 827.802 435.318 827.867 435.309C827.933 435.3 827.995 435.276 828.046 435.239C828.098 435.202 828.138 435.153 828.161 435.098C828.184 435.042 828.191 434.983 828.179 434.924L827.77 432.811L829.504 431.315L829.533 431.287C829.575 431.241 829.603 431.187 829.613 431.129C829.623 431.071 829.616 431.011 829.592 430.956C829.567 430.902 829.527 430.853 829.475 430.817C829.424 430.78 829.362 430.757 829.296 430.748L826.904 430.44L825.834 428.519C825.803 428.463 825.755 428.416 825.696 428.383C825.636 428.35 825.568 428.333 825.498 428.333C825.428 428.333 825.359 428.35 825.3 428.383C825.24 428.416 825.192 428.463 825.161 428.519L824.092 430.44Z" fill="#C9E3CA"/>
</g>
</g>
<path d="M835.692 436V434.81H832.502V433.685L834.807 428.8H836.182L833.877 433.685H835.692V431.81H836.912V433.685H837.587V434.81H836.912V436H835.692ZM838.791 436V434.765H840.026V436H838.791ZM844.618 436V434.81H841.428V433.685L843.733 428.8H845.108L842.803 433.685H844.618V431.81H845.838V433.685H846.513V434.81H845.838V436H844.618ZM850.364 433.585C850.154 433.585 849.975 433.515 849.829 433.375C849.685 433.235 849.614 433.06 849.614 432.85C849.614 432.64 849.685 432.465 849.829 432.325C849.975 432.185 850.154 432.115 850.364 432.115C850.557 432.115 850.724 432.185 850.864 432.325C851.007 432.465 851.079 432.64 851.079 432.85C851.079 433.06 851.007 433.235 850.864 433.375C850.724 433.515 850.557 433.585 850.364 433.585ZM856.707 428.66C857.177 428.66 857.6 428.772 857.977 428.995C858.353 429.215 858.65 429.522 858.867 429.915C859.087 430.305 859.197 430.755 859.197 431.265V433.46C859.197 434.003 859.087 434.478 858.867 434.885C858.65 435.288 858.345 435.6 857.952 435.82C857.558 436.04 857.098 436.15 856.572 436.15C856.208 436.15 855.865 436.088 855.542 435.965C855.218 435.838 854.928 435.645 854.672 435.385L855.537 434.54C855.667 434.69 855.822 434.808 856.002 434.895C856.185 434.978 856.375 435.02 856.572 435.02C856.852 435.02 857.097 434.955 857.307 434.825C857.517 434.692 857.68 434.52 857.797 434.31C857.913 434.097 857.972 433.868 857.972 433.625V432.43L858.187 432.67C857.983 432.91 857.737 433.098 857.447 433.235C857.157 433.368 856.852 433.435 856.532 433.435C856.082 433.435 855.682 433.332 855.332 433.125C854.985 432.918 854.712 432.638 854.512 432.285C854.315 431.928 854.217 431.525 854.217 431.075C854.217 430.625 854.33 430.218 854.557 429.855C854.783 429.488 855.085 429.198 855.462 428.985C855.842 428.768 856.257 428.66 856.707 428.66ZM856.707 429.81C856.473 429.81 856.26 429.867 856.067 429.98C855.873 430.093 855.72 430.247 855.607 430.44C855.493 430.63 855.437 430.842 855.437 431.075C855.437 431.308 855.492 431.522 855.602 431.715C855.715 431.908 855.867 432.062 856.057 432.175C856.25 432.288 856.463 432.345 856.697 432.345C856.93 432.345 857.143 432.288 857.337 432.175C857.53 432.062 857.683 431.908 857.797 431.715C857.913 431.522 857.972 431.308 857.972 431.075C857.972 430.848 857.915 430.64 857.802 430.45C857.688 430.257 857.535 430.102 857.342 429.985C857.152 429.868 856.94 429.81 856.707 429.81ZM860.744 436V434.765H861.979V436H860.744ZM863.381 435.99V434.94L866.461 432.195C866.701 431.982 866.868 431.78 866.961 431.59C867.054 431.4 867.101 431.217 867.101 431.04C867.101 430.8 867.049 430.587 866.946 430.4C866.843 430.21 866.699 430.06 866.516 429.95C866.336 429.84 866.128 429.785 865.891 429.785C865.641 429.785 865.419 429.843 865.226 429.96C865.036 430.073 864.888 430.225 864.781 430.415C864.674 430.605 864.624 430.81 864.631 431.03H863.391C863.391 430.55 863.498 430.132 863.711 429.775C863.928 429.418 864.224 429.142 864.601 428.945C864.981 428.748 865.419 428.65 865.916 428.65C866.376 428.65 866.789 428.753 867.156 428.96C867.523 429.163 867.811 429.447 868.021 429.81C868.231 430.17 868.336 430.585 868.336 431.055C868.336 431.398 868.289 431.687 868.196 431.92C868.103 432.153 867.963 432.368 867.776 432.565C867.593 432.762 867.364 432.98 867.091 433.22L864.906 435.155L864.796 434.855H868.336V435.99H863.381ZM871.53 436L871.54 428.8H872.76V433.2L874.735 430.6H876.24L874.145 433.3L876.42 436H874.825L872.76 433.4V436H871.53ZM883.406 436V432.72C883.406 432.35 883.314 432.062 883.131 431.855C882.947 431.645 882.699 431.54 882.386 431.54C882.192 431.54 882.019 431.585 881.866 431.675C881.712 431.762 881.591 431.892 881.501 432.065C881.411 432.235 881.366 432.438 881.366 432.675L880.831 432.36C880.827 431.987 880.911 431.658 881.081 431.375C881.254 431.088 881.487 430.865 881.781 430.705C882.074 430.545 882.401 430.465 882.761 430.465C883.357 430.465 883.814 430.645 884.131 431.005C884.451 431.362 884.611 431.832 884.611 432.415V436H883.406ZM876.911 436V430.6H877.976V432.275H878.126V436H876.911ZM880.166 436V432.735C880.166 432.358 880.074 432.065 879.891 431.855C879.707 431.645 879.457 431.54 879.141 431.54C878.834 431.54 878.587 431.645 878.401 431.855C878.217 432.065 878.126 432.338 878.126 432.675L877.586 432.315C877.586 431.965 877.672 431.65 877.846 431.37C878.019 431.09 878.252 430.87 878.546 430.71C878.842 430.547 879.174 430.465 879.541 430.465C879.944 430.465 880.281 430.552 880.551 430.725C880.824 430.895 881.027 431.128 881.161 431.425C881.297 431.718 881.366 432.05 881.366 432.42V436H880.166Z" fill="white"/>
<path d="M858.364 445.636C860.016 447.288 860.961 449.518 860.999 451.854C861.037 454.191 860.165 456.45 858.567 458.155L858.364 458.365L854.121 462.607C853.583 463.145 852.86 463.458 852.099 463.483C851.338 463.508 850.597 463.243 850.024 462.742L849.88 462.607L845.636 458.364C843.948 456.676 843 454.387 843 452C843 449.613 843.948 447.324 845.636 445.636C847.324 443.948 849.613 443 852 443C854.387 443 856.676 443.948 858.364 445.636ZM852 449C851.606 449 851.216 449.078 850.852 449.228C850.488 449.379 850.157 449.6 849.879 449.879C849.6 450.157 849.379 450.488 849.228 450.852C849.078 451.216 849 451.606 849 452C849 452.394 849.078 452.784 849.228 453.148C849.379 453.512 849.6 453.843 849.879 454.121C850.157 454.4 850.488 454.621 850.852 454.772C851.216 454.922 851.606 455 852 455C852.796 455 853.559 454.684 854.121 454.121C854.684 453.559 855 452.796 855 452C855 451.204 854.684 450.441 854.121 449.879C853.559 449.316 852.796 449 852 449Z" fill="#C9E3CA"/>
<rect x="195" y="422" width="74" height="17" rx="4" fill="#333842"/>
<g filter="url(#filter3_d_19_819)">
<g clip-path="url(#clip4_19_819)">
<path d="M203.092 428.44L200.699 428.748L200.657 428.756C200.593 428.771 200.534 428.801 200.487 428.842C200.44 428.884 200.407 428.936 200.39 428.993C200.373 429.05 200.374 429.11 200.392 429.166C200.41 429.223 200.444 429.275 200.492 429.316L202.225 430.811L201.816 432.924L201.811 432.961C201.807 433.02 201.821 433.079 201.851 433.131C201.881 433.184 201.927 433.228 201.982 433.26C202.038 433.292 202.103 433.31 202.169 433.313C202.236 433.315 202.301 433.302 202.36 433.275L204.5 432.277L206.635 433.275L206.672 433.29C206.734 433.312 206.802 433.318 206.867 433.309C206.933 433.3 206.995 433.276 207.046 433.239C207.098 433.202 207.138 433.153 207.161 433.098C207.184 433.042 207.191 432.983 207.179 432.924L206.77 430.811L208.504 429.315L208.533 429.287C208.575 429.241 208.603 429.187 208.613 429.129C208.623 429.071 208.616 429.011 208.592 428.956C208.567 428.902 208.527 428.853 208.475 428.817C208.424 428.78 208.362 428.757 208.296 428.748L205.904 428.44L204.834 426.519C204.803 426.463 204.755 426.416 204.696 426.383C204.636 426.35 204.568 426.333 204.498 426.333C204.428 426.333 204.359 426.35 204.3 426.383C204.24 426.416 204.192 426.463 204.161 426.519L203.092 428.44Z" fill="#C9E3CA"/>
</g>
</g>
<path d="M214.692 434V432.81H211.502V431.685L213.807 426.8H215.182L212.877 431.685H214.692V429.81H215.912V431.685H216.587V432.81H215.912V434H214.692ZM217.791 434V432.765H219.026V434H217.791ZM220.428 433.99V432.94L223.508 430.195C223.748 429.982 223.914 429.78 224.008 429.59C224.101 429.4 224.148 429.217 224.148 429.04C224.148 428.8 224.096 428.587 223.993 428.4C223.889 428.21 223.746 428.06 223.563 427.95C223.383 427.84 223.174 427.785 222.938 427.785C222.688 427.785 222.466 427.843 222.273 427.96C222.083 428.073 221.934 428.225 221.828 428.415C221.721 428.605 221.671 428.81 221.678 429.03H220.438C220.438 428.55 220.544 428.132 220.758 427.775C220.974 427.418 221.271 427.142 221.648 426.945C222.028 426.748 222.466 426.65 222.963 426.65C223.423 426.65 223.836 426.753 224.203 426.96C224.569 427.163 224.858 427.447 225.068 427.81C225.278 428.17 225.383 428.585 225.383 429.055C225.383 429.398 225.336 429.687 225.243 429.92C225.149 430.153 225.009 430.368 224.823 430.565C224.639 430.762 224.411 430.98 224.138 431.22L221.953 433.155L221.843 432.855H225.383V433.99H220.428ZM227.235 431.585C227.025 431.585 226.846 431.515 226.7 431.375C226.556 431.235 226.485 431.06 226.485 430.85C226.485 430.64 226.556 430.465 226.7 430.325C226.846 430.185 227.025 430.115 227.235 430.115C227.428 430.115 227.595 430.185 227.735 430.325C227.878 430.465 227.95 430.64 227.95 430.85C227.95 431.06 227.878 431.235 227.735 431.375C227.595 431.515 227.428 431.585 227.235 431.585ZM231.618 434L234.098 427.94H230.953V426.8H235.388V427.94L232.918 434H231.618ZM236.619 434V432.765H237.854V434H236.619ZM241.591 434.15C241.224 434.15 240.883 434.075 240.566 433.925C240.249 433.772 239.976 433.562 239.746 433.295C239.519 433.028 239.356 432.718 239.256 432.365L240.416 432.055C240.463 432.248 240.548 432.415 240.671 432.555C240.798 432.695 240.944 432.803 241.111 432.88C241.281 432.957 241.456 432.995 241.636 432.995C241.869 432.995 242.083 432.938 242.276 432.825C242.469 432.712 242.623 432.56 242.736 432.37C242.849 432.177 242.906 431.963 242.906 431.73C242.906 431.497 242.848 431.285 242.731 431.095C242.618 430.902 242.464 430.75 242.271 430.64C242.078 430.527 241.866 430.47 241.636 430.47C241.359 430.47 241.129 430.52 240.946 430.62C240.766 430.72 240.628 430.827 240.531 430.94L239.501 430.61L239.721 426.8H243.631V427.93H240.366L240.816 427.505L240.656 430.155L240.436 429.885C240.623 429.715 240.839 429.588 241.086 429.505C241.333 429.422 241.571 429.38 241.801 429.38C242.251 429.38 242.649 429.483 242.996 429.69C243.346 429.893 243.619 430.172 243.816 430.525C244.016 430.878 244.116 431.28 244.116 431.73C244.116 432.18 243.999 432.588 243.766 432.955C243.533 433.318 243.224 433.608 242.841 433.825C242.461 434.042 242.044 434.15 241.591 434.15ZM247.307 434L247.317 426.8H248.537V431.2L250.512 428.6H252.017L249.922 431.3L252.197 434H250.602L248.537 431.4V434H247.307ZM259.183 434V430.72C259.183 430.35 259.091 430.062 258.908 429.855C258.725 429.645 258.476 429.54 258.163 429.54C257.97 429.54 257.796 429.585 257.643 429.675C257.49 429.762 257.368 429.892 257.278 430.065C257.188 430.235 257.143 430.438 257.143 430.675L256.608 430.36C256.605 429.987 256.688 429.658 256.858 429.375C257.031 429.088 257.265 428.865 257.558 428.705C257.851 428.545 258.178 428.465 258.538 428.465C259.135 428.465 259.591 428.645 259.908 429.005C260.228 429.362 260.388 429.832 260.388 430.415V434H259.183ZM252.688 434V428.6H253.753V430.275H253.903V434H252.688ZM255.943 434V430.735C255.943 430.358 255.851 430.065 255.668 429.855C255.485 429.645 255.235 429.54 254.918 429.54C254.611 429.54 254.365 429.645 254.178 429.855C253.995 430.065 253.903 430.338 253.903 430.675L253.363 430.315C253.363 429.965 253.45 429.65 253.623 429.37C253.796 429.09 254.03 428.87 254.323 428.71C254.62 428.547 254.951 428.465 255.318 428.465C255.721 428.465 256.058 428.552 256.328 428.725C256.601 428.895 256.805 429.128 256.938 429.425C257.075 429.718 257.143 430.05 257.143 430.42V434H255.943Z" fill="white"/>
<path d="M237.364 443.636C239.016 445.288 239.961 447.518 239.999 449.854C240.037 452.191 239.165 454.45 237.567 456.155L237.364 456.365L233.121 460.607C232.583 461.145 231.86 461.458 231.099 461.483C230.338 461.508 229.597 461.243 229.024 460.742L228.88 460.607L224.636 456.364C222.948 454.676 222 452.387 222 450C222 447.613 222.948 445.324 224.636 443.636C226.324 441.948 228.613 441 231 441C233.387 441 235.676 441.948 237.364 443.636ZM231 447C230.606 447 230.216 447.078 229.852 447.228C229.488 447.379 229.157 447.6 228.879 447.879C228.6 448.157 228.379 448.488 228.228 448.852C228.078 449.216 228 449.606 228 450C228 450.394 228.078 450.784 228.228 451.148C228.379 451.512 228.6 451.843 228.879 452.121C229.157 452.4 229.488 452.621 229.852 452.772C230.216 452.922 230.606 453 231 453C231.796 453 232.559 452.684 233.121 452.121C233.684 451.559 234 450.796 234 450C234 449.204 233.684 448.441 233.121 447.879C232.559 447.316 231.796 447 231 447Z" fill="#C9E3CA"/>
<rect x="414" y="395" width="74" height="17" rx="4" fill="#333842"/>
<g filter="url(#filter4_d_19_819)">
<g clip-path="url(#clip5_19_819)">
<path d="M422.092 401.44L419.699 401.748L419.657 401.756C419.593 401.771 419.534 401.801 419.487 401.842C419.44 401.884 419.407 401.936 419.39 401.993C419.373 402.05 419.374 402.11 419.392 402.166C419.41 402.223 419.444 402.275 419.492 402.316L421.225 403.811L420.816 405.924L420.811 405.961C420.807 406.02 420.821 406.079 420.851 406.131C420.881 406.184 420.927 406.228 420.982 406.26C421.038 406.292 421.103 406.31 421.169 406.313C421.236 406.315 421.301 406.302 421.36 406.275L423.5 405.277L425.635 406.275L425.672 406.29C425.734 406.312 425.802 406.318 425.867 406.309C425.933 406.3 425.995 406.276 426.046 406.239C426.098 406.202 426.138 406.153 426.161 406.098C426.184 406.042 426.191 405.983 426.179 405.924L425.77 403.811L427.504 402.315L427.533 402.287C427.575 402.241 427.603 402.187 427.613 402.129C427.623 402.071 427.616 402.011 427.592 401.956C427.567 401.902 427.527 401.853 427.475 401.817C427.424 401.78 427.362 401.757 427.296 401.748L424.904 401.44L423.834 399.519C423.803 399.463 423.755 399.416 423.696 399.383C423.636 399.35 423.568 399.333 423.498 399.333C423.428 399.333 423.359 399.35 423.3 399.383C423.24 399.416 423.192 399.463 423.161 399.519L422.092 401.44Z" fill="#C9E3CA"/>
</g>
</g>
<path d="M433.692 407V405.81H430.502V404.685L432.807 399.8H434.182L431.877 404.685H433.692V402.81H434.912V404.685H435.587V405.81H434.912V407H433.692ZM436.791 407V405.765H438.026V407H436.791ZM439.677 407V401.115L438.327 401.94V400.61L439.677 399.8H440.907V407H439.677ZM445.463 404.585C445.253 404.585 445.075 404.515 444.928 404.375C444.785 404.235 444.713 404.06 444.713 403.85C444.713 403.64 444.785 403.465 444.928 403.325C445.075 403.185 445.253 403.115 445.463 403.115C445.657 403.115 445.823 403.185 445.963 403.325C446.107 403.465 446.178 403.64 446.178 403.85C446.178 404.06 446.107 404.235 445.963 404.375C445.823 404.515 445.657 404.585 445.463 404.585ZM449.281 406.99V405.94L452.361 403.195C452.601 402.982 452.768 402.78 452.861 402.59C452.955 402.4 453.001 402.217 453.001 402.04C453.001 401.8 452.95 401.587 452.846 401.4C452.743 401.21 452.6 401.06 452.416 400.95C452.236 400.84 452.028 400.785 451.791 400.785C451.541 400.785 451.32 400.843 451.126 400.96C450.936 401.073 450.788 401.225 450.681 401.415C450.575 401.605 450.525 401.81 450.531 402.03H449.291C449.291 401.55 449.398 401.132 449.611 400.775C449.828 400.418 450.125 400.142 450.501 399.945C450.881 399.748 451.32 399.65 451.816 399.65C452.276 399.65 452.69 399.753 453.056 399.96C453.423 400.163 453.711 400.447 453.921 400.81C454.131 401.17 454.236 401.585 454.236 402.055C454.236 402.398 454.19 402.687 454.096 402.92C454.003 403.153 453.863 403.368 453.676 403.565C453.493 403.762 453.265 403.98 452.991 404.22L450.806 406.155L450.696 405.855H454.236V406.99H449.281ZM455.638 407V405.765H456.873V407H455.638ZM461.065 407.15C460.555 407.15 460.105 407.042 459.715 406.825C459.325 406.605 459.02 406.3 458.8 405.91C458.584 405.52 458.475 405.07 458.475 404.56V402.24C458.475 401.73 458.584 401.28 458.8 400.89C459.02 400.5 459.325 400.197 459.715 399.98C460.105 399.76 460.555 399.65 461.065 399.65C461.575 399.65 462.024 399.76 462.41 399.98C462.8 400.197 463.105 400.5 463.325 400.89C463.545 401.28 463.655 401.73 463.655 402.24V404.56C463.655 405.07 463.545 405.52 463.325 405.91C463.105 406.3 462.8 406.605 462.41 406.825C462.024 407.042 461.575 407.15 461.065 407.15ZM461.065 406.005C461.319 406.005 461.549 405.945 461.755 405.825C461.962 405.702 462.125 405.538 462.245 405.335C462.365 405.128 462.425 404.898 462.425 404.645V402.15C462.425 401.893 462.365 401.663 462.245 401.46C462.125 401.253 461.962 401.09 461.755 400.97C461.549 400.847 461.319 400.785 461.065 400.785C460.812 400.785 460.582 400.847 460.375 400.97C460.169 401.09 460.005 401.253 459.885 401.46C459.765 401.663 459.705 401.893 459.705 402.15V404.645C459.705 404.898 459.765 405.128 459.885 405.335C460.005 405.538 460.169 405.702 460.375 405.825C460.582 405.945 460.812 406.005 461.065 406.005ZM467.049 407L467.059 399.8H468.279V404.2L470.254 401.6H471.759L469.664 404.3L471.939 407H470.344L468.279 404.4V407H467.049ZM478.925 407V403.72C478.925 403.35 478.834 403.062 478.65 402.855C478.467 402.645 478.219 402.54 477.905 402.54C477.712 402.54 477.539 402.585 477.385 402.675C477.232 402.762 477.11 402.892 477.02 403.065C476.93 403.235 476.885 403.438 476.885 403.675L476.35 403.36C476.347 402.987 476.43 402.658 476.6 402.375C476.774 402.088 477.007 401.865 477.3 401.705C477.594 401.545 477.92 401.465 478.28 401.465C478.877 401.465 479.334 401.645 479.65 402.005C479.97 402.362 480.13 402.832 480.13 403.415V407H478.925ZM472.43 407V401.6H473.495V403.275H473.645V407H472.43ZM475.685 407V403.735C475.685 403.358 475.594 403.065 475.41 402.855C475.227 402.645 474.977 402.54 474.66 402.54C474.354 402.54 474.107 402.645 473.92 402.855C473.737 403.065 473.645 403.338 473.645 403.675L473.105 403.315C473.105 402.965 473.192 402.65 473.365 402.37C473.539 402.09 473.772 401.87 474.065 401.71C474.362 401.547 474.694 401.465 475.06 401.465C475.464 401.465 475.8 401.552 476.07 401.725C476.344 401.895 476.547 402.128 476.68 402.425C476.817 402.718 476.885 403.05 476.885 403.42V407H475.685Z" fill="white"/>
<path d="M456.364 416.636C458.016 418.288 458.961 420.518 458.999 422.854C459.037 425.191 458.165 427.45 456.567 429.155L456.364 429.365L452.121 433.607C451.583 434.145 450.86 434.458 450.099 434.483C449.338 434.508 448.597 434.243 448.024 433.742L447.88 433.607L443.636 429.364C441.948 427.676 441 425.387 441 423C441 420.613 441.948 418.324 443.636 416.636C445.324 414.948 447.613 414 450 414C452.387 414 454.676 414.948 456.364 416.636ZM450 420C449.606 420 449.216 420.078 448.852 420.228C448.488 420.379 448.157 420.6 447.879 420.879C447.6 421.157 447.379 421.488 447.228 421.852C447.078 422.216 447 422.606 447 423C447 423.394 447.078 423.784 447.228 424.148C447.379 424.512 447.6 424.843 447.879 425.121C448.157 425.4 448.488 425.621 448.852 425.772C449.216 425.922 449.606 426 450 426C450.796 426 451.559 425.684 452.121 425.121C452.684 424.559 453 423.796 453 423C453 422.204 452.684 421.441 452.121 420.879C451.559 420.316 450.796 420 450 420Z" fill="#C9E3CA"/>
</g>
<defs>
<filter id="filter0_d_19_819" x="-29.6412" y="237.119" width="98.2824" height="97.2624" filterUnits="userSpaceOnUse" color-interpolation-filters="sRGB">
<feFlood flood-opacity="0" result="BackgroundImageFix"/>
<feColorMatrix in="SourceAlpha" type="matrix" values="0 0 0 0 0 0 0 0 0 0 0 0 0 0 0 0 0 0 127 0" result="hardAlpha"/>
<feOffset dy="29.7607"/>
<feGaussianBlur stdDeviation="22.3206"/>
<feComposite in2="hardAlpha" operator="out"/>
<feColorMatrix type="matrix" values="0 0 0 0 0 0 0 0 0 0 0 0 0 0 0 0 0 0 0.45 0"/>
<feBlend mode="normal" in2="BackgroundImageFix" result="effect1_dropShadow_19_819"/>
<feBlend mode="normal" in="SourceGraphic" in2="effect1_dropShadow_19_819" result="shape"/>
</filter>
<filter id="filter1_d_19_819" x="790.359" y="249.119" width="98.2824" height="97.2624" filterUnits="userSpaceOnUse" color-interpolation-filters="sRGB">
<feFlood flood-opacity="0" result="BackgroundImageFix"/>
<feColorMatrix in="SourceAlpha" type="matrix" values="0 0 0 0 0 0 0 0 0 0 0 0 0 0 0 0 0 0 127 0" result="hardAlpha"/>
<feOffset dy="29.7607"/>
<feGaussianBlur stdDeviation="22.3206"/>
<feComposite in2="hardAlpha" operator="out"/>
<feColorMatrix type="matrix" values="0 0 0 0 0 0 0 0 0 0 0 0 0 0 0 0 0 0 0.45 0"/>
<feBlend mode="normal" in2="BackgroundImageFix" result="effect1_dropShadow_19_819"/>
<feBlend mode="normal" in="SourceGraphic" in2="effect1_dropShadow_19_819" result="shape"/>
</filter>
<filter id="filter2_d_19_819" x="776.359" y="413.119" width="98.2824" height="97.2624" filterUnits="userSpaceOnUse" color-interpolation-filters="sRGB">
<feFlood flood-opacity="0" result="BackgroundImageFix"/>
<feColorMatrix in="SourceAlpha" type="matrix" values="0 0 0 0 0 0 0 0 0 0 0 0 0 0 0 0 0 0 127 0" result="hardAlpha"/>
<feOffset dy="29.7607"/>
<feGaussianBlur stdDeviation="22.3206"/>
<feComposite in2="hardAlpha" operator="out"/>
<feColorMatrix type="matrix" values="0 0 0 0 0 0 0 0 0 0 0 0 0 0 0 0 0 0 0.45 0"/>
<feBlend mode="normal" in2="BackgroundImageFix" result="effect1_dropShadow_19_819"/>
<feBlend mode="normal" in="SourceGraphic" in2="effect1_dropShadow_19_819" result="shape"/>
</filter>
<filter id="filter3_d_19_819" x="155.359" y="411.119" width="98.2824" height="97.2624" filterUnits="userSpaceOnUse" color-interpolation-filters="sRGB">
<feFlood flood-opacity="0" result="BackgroundImageFix"/>
<feColorMatrix in="SourceAlpha" type="matrix" values="0 0 0 0 0 0 0 0 0 0 0 0 0 0 0 0 0 0 127 0" result="hardAlpha"/>
<feOffset dy="29.7607"/>
<feGaussianBlur stdDeviation="22.3206"/>
<feComposite in2="hardAlpha" operator="out"/>
<feColorMatrix type="matrix" values="0 0 0 0 0 0 0 0 0 0 0 0 0 0 0 0 0 0 0.45 0"/>
<feBlend mode="normal" in2="BackgroundImageFix" result="effect1_dropShadow_19_819"/>
<feBlend mode="normal" in="SourceGraphic" in2="effect1_dropShadow_19_819" result="shape"/>
</filter>
<filter id="filter4_d_19_819" x="374.359" y="384.119" width="98.2824" height="97.2624" filterUnits="userSpaceOnUse" color-interpolation-filters="sRGB">
<feFlood flood-opacity="0" result="BackgroundImageFix"/>
<feColorMatrix in="SourceAlpha" type="matrix" values="0 0 0 0 0 0 0 0 0 0 0 0 0 0 0 0 0 0 127 0" result="hardAlpha"/>
<feOffset dy="29.7607"/>
<feGaussianBlur stdDeviation="22.3206"/>
<feComposite in2="hardAlpha" operator="out"/>
<feColorMatrix type="matrix" values="0 0 0 0 0 0 0 0 0 0 0 0 0 0 0 0 0 0 0.45 0"/>
<feBlend mode="normal" in2="BackgroundImageFix" result="effect1_dropShadow_19_819"/>
<feBlend mode="normal" in="SourceGraphic" in2="effect1_dropShadow_19_819" result="shape"/>
</filter>
<linearGradient id="paint0_linear_19_819" x1="663.091" y1="-44.2075" x2="663.091" y2="165.62" gradientUnits="userSpaceOnUse">
<stop stop-color="#151A23"/>
<stop offset="1" stop-color="#151A23" stop-opacity="0"/>
</linearGradient>
<linearGradient id="paint1_linear_19_819" x1="630.738" y1="650.715" x2="628.379" y2="429" gradientUnits="userSpaceOnUse">
<stop stop-color="#151A23"/>
<stop offset="1" stop-color="#151A23" stop-opacity="0"/>
</linearGradient>
<linearGradient id="paint2_linear_19_819" x1="-18.0011" y1="354.367" x2="203.118" y2="350.27" gradientUnits="userSpaceOnUse">
<stop stop-color="#151A23"/>
<stop offset="1" stop-color="#151A23" stop-opacity="0"/>
</linearGradient>
<linearGradient id="paint3_linear_19_819" x1="936.17" y1="251.633" x2="715.051" y2="255.73" gradientUnits="userSpaceOnUse">
<stop stop-color="#151A23"/>
<stop offset="1" stop-color="#151A23" stop-opacity="0"/>
</linearGradient>
<linearGradient id="paint4_linear_19_819" x1="542.326" y1="421.666" x2="551.162" y2="427.58" gradientUnits="userSpaceOnUse">
<stop stop-color="#242424"/>
<stop offset="1" stop-color="white"/>
</linearGradient>
<linearGradient id="paint5_linear_19_819" x1="532.783" y1="419.305" x2="547.256" y2="428.993" gradientUnits="userSpaceOnUse">
<stop stop-color="#D1D1D1"/>
<stop offset="1" stop-color="#A8ABAA"/>
</linearGradient>
<linearGradient id="paint6_linear_19_819" x1="548.5" y1="404.073" x2="555.348" y2="408.656" gradientUnits="userSpaceOnUse">
<stop stop-color="#525956"/>
<stop offset="1"/>
</linearGradient>
<radialGradient id="paint7_radial_19_819" cx="0" cy="0" r="1" gradientTransform="matrix(7.15079 4.78615 -18.3809 27.4604 543.158 419.461)" gradientUnits="userSpaceOnUse">
<stop offset="0.24" stop-color="white"/>
<stop offset="1" stop-color="#D2D6D5"/>
</radialGradient>
<linearGradient id="paint8_linear_19_819" x1="538.488" y1="415.591" x2="548.515" y2="422.302" gradientUnits="userSpaceOnUse">
<stop/>
<stop offset="1" stop-color="#1B1C1C"/>
</linearGradient>
<linearGradient id="paint9_linear_19_819" x1="541.064" y1="410.034" x2="552.673" y2="417.805" gradientUnits="userSpaceOnUse">
<stop/>
<stop offset="1" stop-color="#1B1C1C"/>
</linearGradient>
<linearGradient id="paint10_linear_19_819" x1="539.52" y1="412.446" x2="551.03" y2="420.15" gradientUnits="userSpaceOnUse">
<stop stop-color="#363B39"/>
<stop offset="1" stop-color="#1B1C1C"/>
</linearGradient>
<linearGradient id="paint11_linear_19_819" x1="536.305" y1="416.292" x2="537.438" y2="417.05" gradientUnits="userSpaceOnUse">
<stop stop-color="#363B39"/>
<stop offset="1" stop-color="#1B1C1C"/>
</linearGradient>
<linearGradient id="paint12_linear_19_819" x1="547.569" y1="423.827" x2="548.704" y2="424.587" gradientUnits="userSpaceOnUse">
<stop stop-color="#363B39"/>
<stop offset="1" stop-color="#1B1C1C"/>
</linearGradient>
<linearGradient id="paint13_linear_19_819" x1="529.9" y1="426.032" x2="531.073" y2="426.817" gradientUnits="userSpaceOnUse">
<stop stop-color="#363B39"/>
<stop offset="1" stop-color="#1B1C1C"/>
</linearGradient>
<linearGradient id="paint14_linear_19_819" x1="540.971" y1="433.428" x2="542.143" y2="434.212" gradientUnits="userSpaceOnUse">
<stop stop-color="#363B39"/>
<stop offset="1" stop-color="#1B1C1C"/>
</linearGradient>
<linearGradient id="paint15_linear_19_819" x1="543.507" y1="409.33" x2="548.507" y2="405.349" gradientUnits="userSpaceOnUse">
<stop stop-color="#D2DBDA"/>
<stop offset="1" stop-color="#B5B5B5"/>
</linearGradient>
<linearGradient id="paint16_linear_19_819" x1="552.061" y1="415.487" x2="554.191" y2="409.531" gradientUnits="userSpaceOnUse">
<stop stop-color="#D2DBDA"/>
<stop offset="1" stop-color="#B5B5B5"/>
</linearGradient>
<linearGradient id="paint17_linear_19_819" x1="546.022" y1="415.131" x2="547.712" y2="419.58" gradientUnits="userSpaceOnUse">
<stop stop-color="#363B39"/>
<stop offset="1"/>
</linearGradient>
<linearGradient id="paint18_linear_19_819" x1="538.764" y1="416.85" x2="537.155" y2="454.573" gradientUnits="userSpaceOnUse">
<stop stop-color="white"/>
<stop offset="1" stop-color="#DBDBDB"/>
</linearGradient>
<linearGradient id="paint19_linear_19_819" x1="546.118" y1="398.74" x2="543.266" y2="409.646" gradientUnits="userSpaceOnUse">
<stop stop-color="#F7F7F7"/>
<stop offset="1" stop-color="#DBDBDB"/>
</linearGradient>
<linearGradient id="paint20_linear_19_819" x1="561.202" y1="408.836" x2="552.203" y2="415.629" gradientUnits="userSpaceOnUse">
<stop stop-color="#F7F7F7"/>
<stop offset="1" stop-color="#DBDBDB"/>
</linearGradient>
<linearGradient id="paint21_linear_19_819" x1="552.002" y1="419.214" x2="551.636" y2="422.439" gradientUnits="userSpaceOnUse">
<stop stop-color="#363B39"/>
<stop offset="1" stop-color="#1B1C1C"/>
</linearGradient>
<linearGradient id="paint22_linear_19_819" x1="551.858" y1="420.102" x2="553.72" y2="421.349" gradientUnits="userSpaceOnUse">
<stop stop-color="white"/>
<stop offset="1" stop-color="#D2D6D5"/>
</linearGradient>
<linearGradient id="paint23_linear_19_819" x1="551.681" y1="420.342" x2="553.545" y2="421.59" gradientUnits="userSpaceOnUse">
<stop stop-color="#363B39"/>
<stop offset="1" stop-color="#1B1C1C"/>
</linearGradient>
<linearGradient id="paint24_linear_19_819" x1="539.958" y1="411.152" x2="537.116" y2="412.72" gradientUnits="userSpaceOnUse">
<stop stop-color="#363B39"/>
<stop offset="1" stop-color="#1B1C1C"/>
</linearGradient>
<linearGradient id="paint25_linear_19_819" x1="539.19" y1="411.624" x2="537.328" y2="410.377" gradientUnits="userSpaceOnUse">
<stop stop-color="white"/>
<stop offset="1" stop-color="#D2D6D5"/>
</linearGradient>
<linearGradient id="paint26_linear_19_819" x1="539.035" y1="411.879" x2="537.173" y2="410.633" gradientUnits="userSpaceOnUse">
<stop stop-color="#363B39"/>
<stop offset="1" stop-color="#1B1C1C"/>
</linearGradient>
<linearGradient id="paint27_linear_19_819" x1="529.116" y1="435.673" x2="533.519" y2="438.62" gradientUnits="userSpaceOnUse">
<stop stop-color="#363B39"/>
<stop offset="1"/>
</linearGradient>
<radialGradient id="paint28_radial_19_819" cx="0" cy="0" r="1" gradientTransform="matrix(1.22365 0.819012 -0.819105 1.22371 556.395 410.375)" gradientUnits="userSpaceOnUse">
<stop stop-color="white"/>
<stop offset="1" stop-color="#D2D6D5"/>
</radialGradient>
<radialGradient id="paint29_radial_19_819" cx="0" cy="0" r="1" gradientTransform="matrix(-1.22365 -0.81902 0.819109 -1.22371 546.521 403.766)" gradientUnits="userSpaceOnUse">
<stop stop-color="white"/>
<stop offset="1" stop-color="#D2D6D5"/>
</radialGradient>
<linearGradient id="paint30_linear_19_819" x1="530.818" y1="424.661" x2="531.927" y2="425.404" gradientUnits="userSpaceOnUse">
<stop stop-color="#363B39"/>
<stop offset="1"/>
</linearGradient>
<linearGradient id="paint31_linear_19_819" x1="537.174" y1="414.994" x2="538.174" y2="415.663" gradientUnits="userSpaceOnUse">
<stop stop-color="#363B39"/>
<stop offset="1"/>
</linearGradient>
<linearGradient id="paint32_linear_19_819" x1="543.087" y1="432.863" x2="541.977" y2="432.12" gradientUnits="userSpaceOnUse">
<stop stop-color="#363B39"/>
<stop offset="1"/>
</linearGradient>
<linearGradient id="paint33_linear_19_819" x1="549.598" y1="423.305" x2="548.598" y2="422.636" gradientUnits="userSpaceOnUse">
<stop stop-color="#363B39"/>
<stop offset="1"/>
</linearGradient>
<linearGradient id="paint34_linear_19_819" x1="547.886" y1="408.636" x2="551.002" y2="410.722" gradientUnits="userSpaceOnUse">
<stop stop-color="#D2DBDA"/>
<stop offset="1" stop-color="#B5B5B5"/>
</linearGradient>
<linearGradient id="paint35_linear_19_819" x1="547.657" y1="408.976" x2="550.773" y2="411.062" gradientUnits="userSpaceOnUse">
<stop stop-color="#D2DBDA"/>
<stop offset="1" stop-color="#B5B5B5"/>
</linearGradient>
<linearGradient id="paint36_linear_19_819" x1="547.431" y1="409.316" x2="550.547" y2="411.402" gradientUnits="userSpaceOnUse">
<stop stop-color="#D2DBDA"/>
<stop offset="1" stop-color="#B5B5B5"/>
</linearGradient>
<linearGradient id="paint37_linear_19_819" x1="547.202" y1="409.659" x2="550.318" y2="411.745" gradientUnits="userSpaceOnUse">
<stop stop-color="#D2DBDA"/>
<stop offset="1" stop-color="#B5B5B5"/>
</linearGradient>
<linearGradient id="paint38_linear_19_819" x1="527.684" y1="431.892" x2="537.53" y2="438.482" gradientUnits="userSpaceOnUse">
<stop stop-color="#363B39"/>
<stop offset="1" stop-color="#1B1C1C"/>
</linearGradient>
<linearGradient id="paint39_linear_19_819" x1="533.22" y1="430.94" x2="533.162" y2="435.61" gradientUnits="userSpaceOnUse">
<stop stop-color="#5E5E5E"/>
<stop offset="1"/>
</linearGradient>
<clipPath id="clip0_19_819">
<rect width="910" height="480" fill="white"/>
</clipPath>
<clipPath id="clip1_19_819">
<rect width="8.99983" height="7.98001" fill="white" transform="translate(15 252)"/>
</clipPath>
<clipPath id="clip2_19_819">
<rect width="8.99983" height="7.98001" fill="white" transform="translate(835 264)"/>
</clipPath>
<clipPath id="clip3_19_819">
<rect width="8.99983" height="7.98001" fill="white" transform="translate(821 428)"/>
</clipPath>
<clipPath id="clip4_19_819">
<rect width="8.99983" height="7.98001" fill="white" transform="translate(200 426)"/>
</clipPath>
<clipPath id="clip5_19_819">
<rect width="8.99983" height="7.98001" fill="white" transform="translate(419 399)"/>
</clipPath>
</defs>
</svg>
