<?xml version="1.0" encoding="UTF-8"?>
<svg version="1.1" xmlns="http://www.w3.org/2000/svg" width="512" height="512">
<path d="M0 0 C1.0633255 0.00090637 1.0633255 0.00090637 2.14813232 0.00183105 C30.77794631 0.06822936 30.77794631 0.06822936 38.375 6.1875 C42.59899488 11.11794698 43.47282829 16.09456152 44.5 22.3125 C44.66467773 23.2408667 44.82935547 24.1692334 44.99902344 25.12573242 C45.47193249 27.81077891 45.92603256 30.49836128 46.375 33.1875 C46.60621829 34.53525116 46.83791673 35.88292013 47.0703125 37.23046875 C47.51994825 39.88078651 47.95716017 42.53201792 48.375 45.1875 C49.43074219 45.50460938 50.48648437 45.82171875 51.57421875 46.1484375 C58.61046301 48.34449864 65.41244195 50.60467744 72 53.953125 C73.39085815 54.66009521 73.39085815 54.66009521 74.80981445 55.38134766 C76.62178059 56.32340934 78.4205514 57.29137183 80.20385742 58.28662109 C82.60584143 59.53670186 84.74248376 60.55179565 87.375 61.1875 C90.50346724 60.02766121 91.89860119 59.21627483 94.375 57.1875 C95.83147912 56.14194345 97.28993289 55.09913397 98.75 54.05859375 C101.07482641 52.34067356 103.39150804 50.61260512 105.703125 48.87695312 C117.18956875 40.40863107 117.18956875 40.40863107 123.75 41.125 C132.43848535 42.52162624 138.7603289 49.21937385 144.9765625 54.9765625 C147.04452591 56.88286101 149.15628772 58.69582238 151.3125 60.5 C161.00787129 68.98100156 172.94911231 80.55241916 176.375 93.1875 C176.5318006 102.43873518 171.00400108 109.3841493 164.92578125 115.96875 C159.6153005 121.96433886 159.6153005 121.96433886 156.375 129.1875 C157.03238685 135.64407004 160.79093482 141.21834847 164.01416016 146.70654297 C166.1287564 150.56167878 167.54360137 154.59077185 168.9375 158.75 C169.18741699 159.45833984 169.43733398 160.16667969 169.69482422 160.89648438 C170.69328867 163.78996453 171.375 166.10438651 171.375 169.1875 C172.72078125 169.38327637 172.72078125 169.38327637 174.09375 169.58300781 C177.45770119 170.07908636 180.81932822 170.58747248 184.18017578 171.10400391 C185.62833683 171.32404706 187.0772316 171.53932119 188.52685547 171.74951172 C206.30879676 174.33530745 206.30879676 174.33530745 212.75 180.4375 C218.9090522 190.86051141 217.58077285 205.13851995 217.5625 216.8125 C217.56189575 217.52138367 217.5612915 218.23026733 217.56066895 218.96063232 C217.49427064 247.59044631 217.49427064 247.59044631 211.375 255.1875 C206.44455302 259.41149488 201.46793848 260.28532829 195.25 261.3125 C193.85744995 261.5595166 193.85744995 261.5595166 192.43676758 261.81152344 C189.75172109 262.28443249 187.06413872 262.73853256 184.375 263.1875 C183.02724884 263.41871829 181.67957987 263.65041673 180.33203125 263.8828125 C177.68171349 264.33244825 175.03048208 264.76966017 172.375 265.1875 C172.05789063 266.24324219 171.74078125 267.29898437 171.4140625 268.38671875 C170.94606489 269.88386587 170.47439194 271.37986671 170 272.875 C169.62355347 274.07394897 169.62355347 274.07394897 169.23950195 275.29711914 C167.34807772 281.01551956 164.89105779 286.1224293 162.01586914 291.40673828 C157.59806733 299.00186808 157.59806733 299.00186808 156.90625 307.3984375 C158.78921397 310.35611204 160.95131676 312.65234171 163.375 315.1875 C165.40134028 317.91965202 167.28696102 320.74200747 169.1875 323.5625 C169.66662842 324.24159424 170.14575684 324.92068848 170.6394043 325.62036133 C174.66682297 331.35620916 177.06837353 335.67055698 176.03125 342.80078125 C173.95511653 350.35148096 167.76847322 356.19330134 162.5859375 361.7890625 C160.67963899 363.85702591 158.86667762 365.96878772 157.0625 368.125 C148.58149844 377.82037129 137.01008084 389.76161231 124.375 393.1875 C115.12376482 393.3443006 108.1783507 387.81650108 101.59375 381.73828125 C95.59816114 376.4278005 95.59816114 376.4278005 88.375 373.1875 C81.91842996 373.84488685 76.34415153 377.60343482 70.85595703 380.82666016 C67.00082122 382.9412564 62.97172815 384.35610137 58.8125 385.75 C58.10416016 385.99991699 57.39582031 386.24983398 56.66601562 386.50732422 C53.77253547 387.50578867 51.45811349 388.1875 48.375 388.1875 C48.24448242 389.0846875 48.11396484 389.981875 47.97949219 390.90625 C47.48341364 394.27020119 46.97502752 397.63182822 46.45849609 400.99267578 C46.23845294 402.44083683 46.02317881 403.8897316 45.81298828 405.33935547 C43.22719255 423.12129676 43.22719255 423.12129676 37.125 429.5625 C26.70198859 435.7215522 12.42398005 434.39327285 0.75 434.375 C-0.3133255 434.37409363 -0.3133255 434.37409363 -1.39813232 434.37316895 C-30.02794631 434.30677064 -30.02794631 434.30677064 -37.625 428.1875 C-41.84899488 423.25705302 -42.72282829 418.28043848 -43.75 412.0625 C-43.9970166 410.66994995 -43.9970166 410.66994995 -44.24902344 409.24926758 C-44.72193249 406.56422109 -45.17603256 403.87663872 -45.625 401.1875 C-45.85621829 399.83974884 -46.08791673 398.49207987 -46.3203125 397.14453125 C-46.76994825 394.49421349 -47.20716017 391.84298208 -47.625 389.1875 C-48.68074219 388.87039063 -49.73648438 388.55328125 -50.82421875 388.2265625 C-57.86046301 386.03050136 -64.66244195 383.77032256 -71.25 380.421875 C-72.64085815 379.71490479 -72.64085815 379.71490479 -74.05981445 378.99365234 C-75.87178059 378.05159066 -77.6705514 377.08362817 -79.45385742 376.08837891 C-81.85589238 374.83827162 -83.99241191 373.82315183 -86.625 373.1875 C-89.75693824 374.34734966 -91.14930349 375.15426985 -93.625 377.1875 C-95.06996257 378.2327563 -96.51668317 379.27558518 -97.96484375 380.31640625 C-100.27355938 382.03263712 -102.57390917 383.7586609 -104.86523438 385.49804688 C-110.76107224 389.86328293 -116.01195042 393.13015001 -123.5625 393.25 C-142.23501791 389.71052852 -161.86618149 363.72523522 -172.125 349.5 C-174.8528243 345.22970123 -175.70582324 342.2793639 -175.625 337.1875 C-173.62710733 330.51368832 -170.37408579 325.64006665 -166.1875 320.125 C-164.48655014 317.85770462 -162.79653544 315.58668482 -161.14282227 313.28466797 C-160.19002041 311.96818607 -159.20234998 310.67556171 -158.16772461 309.42236328 C-156.68094128 307.56836089 -156.68094128 307.56836089 -155.625 304.1875 C-156.51321792 300.53846687 -158.24852444 297.45599426 -160.0625 294.1875 C-161.02357495 292.32894346 -161.9779897 290.46692805 -162.92578125 288.6015625 C-163.39322754 287.68793945 -163.86067383 286.77431641 -164.34228516 285.83300781 C-167.3510989 279.62754421 -170.625 272.12232617 -170.625 265.1875 C-171.5221875 265.05698242 -172.419375 264.92646484 -173.34375 264.79199219 C-176.70770119 264.29591364 -180.06932822 263.78752752 -183.43017578 263.27099609 C-184.87833683 263.05095294 -186.3272316 262.83567881 -187.77685547 262.62548828 C-205.55879676 260.03969255 -205.55879676 260.03969255 -212 253.9375 C-218.1590522 243.51448859 -216.83077285 229.23648005 -216.8125 217.5625 C-216.81159363 216.4991745 -216.81159363 216.4991745 -216.81066895 215.41436768 C-216.74427064 186.78455369 -216.74427064 186.78455369 -210.625 179.1875 C-206.33729345 175.69137004 -202.73355841 174.50543747 -197.3125 173.625 C-196.631875 173.50987061 -195.95125 173.39474121 -195.25 173.27612305 C-193.80220065 173.03169153 -192.35342644 172.79297518 -190.90380859 172.55957031 C-187.74089627 172.0431488 -184.58752052 171.4766729 -181.43286133 170.91235352 C-178.16511656 170.32849433 -174.89507558 169.75814438 -171.625 169.1875 C-171.30789062 168.13175781 -170.99078125 167.07601562 -170.6640625 165.98828125 C-168.46800136 158.95203699 -166.20782256 152.15005805 -162.859375 145.5625 C-162.15240479 144.17164185 -162.15240479 144.17164185 -161.43115234 142.75268555 C-160.48909066 140.94071941 -159.52112817 139.1419486 -158.52587891 137.35864258 C-157.27579814 134.95665857 -156.26070435 132.82001624 -155.625 130.1875 C-156.78483879 127.05903276 -157.59622517 125.66389881 -159.625 123.1875 C-160.67055655 121.73102088 -161.71336603 120.27256711 -162.75390625 118.8125 C-164.47182644 116.48767359 -166.19989488 114.17099196 -167.93554688 111.859375 C-176.40386893 100.37293125 -176.40386893 100.37293125 -175.6875 93.8125 C-172.57053415 74.88806451 -146.26631728 55.02101883 -131.9375 44.6875 C-127.66720123 41.9596757 -124.7168639 41.10667676 -119.625 41.1875 C-112.95118832 43.18539267 -108.07756665 46.43841421 -102.5625 50.625 C-100.29520462 52.32594986 -98.02418482 54.01596456 -95.72216797 55.66967773 C-94.40568607 56.62247959 -93.11306171 57.61015002 -91.85986328 58.64477539 C-90.00586089 60.13155872 -90.00586089 60.13155872 -86.625 61.1875 C-82.97596687 60.29928208 -79.89349426 58.56397556 -76.625 56.75 C-74.76644346 55.78892505 -72.90442805 54.8345103 -71.0390625 53.88671875 C-70.12543945 53.41927246 -69.21181641 52.95182617 -68.27050781 52.47021484 C-62.06504421 49.4614011 -54.55982617 46.1875 -47.625 46.1875 C-47.49448242 45.2903125 -47.36396484 44.393125 -47.22949219 43.46875 C-46.73341364 40.10479881 -46.22502752 36.74317178 -45.70849609 33.38232422 C-45.48845294 31.93416317 -45.27317881 30.4852684 -45.06298828 29.03564453 C-42.47719255 11.25370324 -42.47719255 11.25370324 -36.375 4.8125 C-25.95198859 -1.3465522 -11.67398005 -0.01827285 0 0 Z " fill="#8DD3B7" transform="translate(255.625,38.8125)"/>
<path d="M0 0 C2.47981789 2.19673365 4.90528216 4.43923215 7.31640625 6.7109375 C8.32960938 7.62746094 8.32960938 7.62746094 9.36328125 8.5625 C31.45538856 29.32908087 43.48022675 61.19524863 44.5546875 91.015625 C45.24605797 125.91426225 33.00110535 158.40246608 9.12109375 183.94897461 C-12.2133318 205.93162814 -42.8807361 221.06995278 -73.71484375 222.046875 C-111.42362845 222.50276704 -143.0861439 212.03171243 -170.73828125 185.6484375 C-195.48081662 161.3468582 -207.66354344 128.87862124 -208.05859375 94.5234375 C-208.02085965 62.12760629 -195.08884102 32.06878882 -172.68359375 8.7109375 C-171.925625 7.88980469 -171.16765625 7.06867188 -170.38671875 6.22265625 C-156.99682716 -7.84548148 -139.26216703 -18.6196698 -120.68359375 -24.2890625 C-119.05550781 -24.80919922 -119.05550781 -24.80919922 -117.39453125 -25.33984375 C-76.41225669 -37.83443965 -32.36931237 -27.61050517 0 0 Z " fill="#424670" transform="translate(337.68359375,160.2890625)"/>
<path d="M0 0 C1.0633255 0.00090637 1.0633255 0.00090637 2.14813232 0.00183105 C30.77794631 0.06822936 30.77794631 0.06822936 38.375 6.1875 C42.59899488 11.11794698 43.47282829 16.09456152 44.5 22.3125 C44.66467773 23.2408667 44.82935547 24.1692334 44.99902344 25.12573242 C45.47193249 27.81077891 45.92603256 30.49836128 46.375 33.1875 C46.60621829 34.53525116 46.83791673 35.88292013 47.0703125 37.23046875 C47.51994825 39.88078651 47.95716017 42.53201792 48.375 45.1875 C49.43074219 45.50460938 50.48648437 45.82171875 51.57421875 46.1484375 C58.61046301 48.34449864 65.41244195 50.60467744 72 53.953125 C73.39085815 54.66009521 73.39085815 54.66009521 74.80981445 55.38134766 C76.62178059 56.32340934 78.4205514 57.29137183 80.20385742 58.28662109 C82.60584143 59.53670186 84.74248376 60.55179565 87.375 61.1875 C90.50346724 60.02766121 91.89860119 59.21627483 94.375 57.1875 C95.83147912 56.14194345 97.28993289 55.09913397 98.75 54.05859375 C101.07482641 52.34067356 103.39150804 50.61260512 105.703125 48.87695312 C117.18956875 40.40863107 117.18956875 40.40863107 123.75 41.125 C132.43848535 42.52162624 138.7603289 49.21937385 144.9765625 54.9765625 C147.04452591 56.88286101 149.15628772 58.69582238 151.3125 60.5 C161.00787129 68.98100156 172.94911231 80.55241916 176.375 93.1875 C176.5318006 102.43873518 171.00400108 109.3841493 164.92578125 115.96875 C159.6153005 121.96433886 159.6153005 121.96433886 156.375 129.1875 C157.03238685 135.64407004 160.79093482 141.21834847 164.01416016 146.70654297 C166.1287564 150.56167878 167.54360137 154.59077185 168.9375 158.75 C169.18741699 159.45833984 169.43733398 160.16667969 169.69482422 160.89648438 C170.69328867 163.78996453 171.375 166.10438651 171.375 169.1875 C172.72078125 169.38327637 172.72078125 169.38327637 174.09375 169.58300781 C177.45770119 170.07908636 180.81932822 170.58747248 184.18017578 171.10400391 C185.62833683 171.32404706 187.0772316 171.53932119 188.52685547 171.74951172 C206.30879676 174.33530745 206.30879676 174.33530745 212.75 180.4375 C218.9090522 190.86051141 217.58077285 205.13851995 217.5625 216.8125 C217.56189575 217.52138367 217.5612915 218.23026733 217.56066895 218.96063232 C217.49427064 247.59044631 217.49427064 247.59044631 211.375 255.1875 C206.44455302 259.41149488 201.46793848 260.28532829 195.25 261.3125 C193.85744995 261.5595166 193.85744995 261.5595166 192.43676758 261.81152344 C189.75172109 262.28443249 187.06413872 262.73853256 184.375 263.1875 C183.02724884 263.41871829 181.67957987 263.65041673 180.33203125 263.8828125 C177.68171349 264.33244825 175.03048208 264.76966017 172.375 265.1875 C172.05789063 266.24324219 171.74078125 267.29898437 171.4140625 268.38671875 C170.94606489 269.88386587 170.47439194 271.37986671 170 272.875 C169.62355347 274.07394897 169.62355347 274.07394897 169.23950195 275.29711914 C167.34807772 281.01551956 164.89105779 286.1224293 162.01586914 291.40673828 C157.59806733 299.00186808 157.59806733 299.00186808 156.90625 307.3984375 C158.78921397 310.35611204 160.95131676 312.65234171 163.375 315.1875 C165.40134028 317.91965202 167.28696102 320.74200747 169.1875 323.5625 C169.66662842 324.24159424 170.14575684 324.92068848 170.6394043 325.62036133 C174.66682297 331.35620916 177.06837353 335.67055698 176.03125 342.80078125 C173.95511653 350.35148096 167.76847322 356.19330134 162.5859375 361.7890625 C160.67963899 363.85702591 158.86667762 365.96878772 157.0625 368.125 C148.58149844 377.82037129 137.01008084 389.76161231 124.375 393.1875 C115.12376482 393.3443006 108.1783507 387.81650108 101.59375 381.73828125 C95.59816114 376.4278005 95.59816114 376.4278005 88.375 373.1875 C81.91842996 373.84488685 76.34415153 377.60343482 70.85595703 380.82666016 C67.00082122 382.9412564 62.97172815 384.35610137 58.8125 385.75 C58.10416016 385.99991699 57.39582031 386.24983398 56.66601562 386.50732422 C53.77253547 387.50578867 51.45811349 388.1875 48.375 388.1875 C48.24448242 389.0846875 48.11396484 389.981875 47.97949219 390.90625 C47.48341364 394.27020119 46.97502752 397.63182822 46.45849609 400.99267578 C46.23845294 402.44083683 46.02317881 403.8897316 45.81298828 405.33935547 C43.22719255 423.12129676 43.22719255 423.12129676 37.125 429.5625 C26.70198859 435.7215522 12.42398005 434.39327285 0.75 434.375 C-0.3133255 434.37409363 -0.3133255 434.37409363 -1.39813232 434.37316895 C-30.02794631 434.30677064 -30.02794631 434.30677064 -37.625 428.1875 C-41.84899488 423.25705302 -42.72282829 418.28043848 -43.75 412.0625 C-43.9970166 410.66994995 -43.9970166 410.66994995 -44.24902344 409.24926758 C-44.72193249 406.56422109 -45.17603256 403.87663872 -45.625 401.1875 C-45.85621829 399.83974884 -46.08791673 398.49207987 -46.3203125 397.14453125 C-46.76994825 394.49421349 -47.20716017 391.84298208 -47.625 389.1875 C-48.68074219 388.87039063 -49.73648438 388.55328125 -50.82421875 388.2265625 C-57.86046301 386.03050136 -64.66244195 383.77032256 -71.25 380.421875 C-72.64085815 379.71490479 -72.64085815 379.71490479 -74.05981445 378.99365234 C-75.87178059 378.05159066 -77.6705514 377.08362817 -79.45385742 376.08837891 C-81.85589238 374.83827162 -83.99241191 373.82315183 -86.625 373.1875 C-89.75693824 374.34734966 -91.14930349 375.15426985 -93.625 377.1875 C-95.06996257 378.2327563 -96.51668317 379.27558518 -97.96484375 380.31640625 C-100.27355938 382.03263712 -102.57390917 383.7586609 -104.86523438 385.49804688 C-110.76107224 389.86328293 -116.01195042 393.13015001 -123.5625 393.25 C-142.23501791 389.71052852 -161.86618149 363.72523522 -172.125 349.5 C-174.8528243 345.22970123 -175.70582324 342.2793639 -175.625 337.1875 C-173.62710733 330.51368832 -170.37408579 325.64006665 -166.1875 320.125 C-164.48655014 317.85770462 -162.79653544 315.58668482 -161.14282227 313.28466797 C-160.19002041 311.96818607 -159.20234998 310.67556171 -158.16772461 309.42236328 C-156.68094128 307.56836089 -156.68094128 307.56836089 -155.625 304.1875 C-156.51321792 300.53846687 -158.24852444 297.45599426 -160.0625 294.1875 C-161.02357495 292.32894346 -161.9779897 290.46692805 -162.92578125 288.6015625 C-163.39322754 287.68793945 -163.86067383 286.77431641 -164.34228516 285.83300781 C-167.3510989 279.62754421 -170.625 272.12232617 -170.625 265.1875 C-171.5221875 265.05698242 -172.419375 264.92646484 -173.34375 264.79199219 C-176.70770119 264.29591364 -180.06932822 263.78752752 -183.43017578 263.27099609 C-184.87833683 263.05095294 -186.3272316 262.83567881 -187.77685547 262.62548828 C-205.55879676 260.03969255 -205.55879676 260.03969255 -212 253.9375 C-218.1590522 243.51448859 -216.83077285 229.23648005 -216.8125 217.5625 C-216.81159363 216.4991745 -216.81159363 216.4991745 -216.81066895 215.41436768 C-216.74427064 186.78455369 -216.74427064 186.78455369 -210.625 179.1875 C-206.33729345 175.69137004 -202.73355841 174.50543747 -197.3125 173.625 C-196.631875 173.50987061 -195.95125 173.39474121 -195.25 173.27612305 C-193.80220065 173.03169153 -192.35342644 172.79297518 -190.90380859 172.55957031 C-187.74089627 172.0431488 -184.58752052 171.4766729 -181.43286133 170.91235352 C-178.16511656 170.32849433 -174.89507558 169.75814438 -171.625 169.1875 C-171.30789062 168.13175781 -170.99078125 167.07601562 -170.6640625 165.98828125 C-168.46800136 158.95203699 -166.20782256 152.15005805 -162.859375 145.5625 C-162.15240479 144.17164185 -162.15240479 144.17164185 -161.43115234 142.75268555 C-160.48909066 140.94071941 -159.52112817 139.1419486 -158.52587891 137.35864258 C-157.27579814 134.95665857 -156.26070435 132.82001624 -155.625 130.1875 C-156.78483879 127.05903276 -157.59622517 125.66389881 -159.625 123.1875 C-160.67055655 121.73102088 -161.71336603 120.27256711 -162.75390625 118.8125 C-164.47182644 116.48767359 -166.19989488 114.17099196 -167.93554688 111.859375 C-176.40386893 100.37293125 -176.40386893 100.37293125 -175.6875 93.8125 C-172.57053415 74.88806451 -146.26631728 55.02101883 -131.9375 44.6875 C-127.66720123 41.9596757 -124.7168639 41.10667676 -119.625 41.1875 C-112.95118832 43.18539267 -108.07756665 46.43841421 -102.5625 50.625 C-100.29520462 52.32594986 -98.02418482 54.01596456 -95.72216797 55.66967773 C-94.40568607 56.62247959 -93.11306171 57.61015002 -91.85986328 58.64477539 C-90.00586089 60.13155872 -90.00586089 60.13155872 -86.625 61.1875 C-82.97596687 60.29928208 -79.89349426 58.56397556 -76.625 56.75 C-74.76644346 55.78892505 -72.90442805 54.8345103 -71.0390625 53.88671875 C-70.12543945 53.41927246 -69.21181641 52.95182617 -68.27050781 52.47021484 C-62.06504421 49.4614011 -54.55982617 46.1875 -47.625 46.1875 C-47.49448242 45.2903125 -47.36396484 44.393125 -47.22949219 43.46875 C-46.73341364 40.10479881 -46.22502752 36.74317178 -45.70849609 33.38232422 C-45.48845294 31.93416317 -45.27317881 30.4852684 -45.06298828 29.03564453 C-42.47719255 11.25370324 -42.47719255 11.25370324 -36.375 4.8125 C-25.95198859 -1.3465522 -11.67398005 -0.01827285 0 0 Z M-26.625 18.1875 C-26.75551758 19.0846875 -26.88603516 19.981875 -27.02050781 20.90625 C-27.51658636 24.27020119 -28.02497248 27.63182822 -28.54150391 30.99267578 C-28.76154706 32.44083683 -28.97682119 33.8897316 -29.18701172 35.33935547 C-31.42212813 50.70975314 -31.42212813 50.70975314 -35.625 57.1875 C-40.67784029 60.52428132 -46.0948715 61.98108779 -51.85083008 63.75927734 C-60.06639241 66.44308739 -67.78439226 70.36304706 -75.52490234 74.17382812 C-85.93300274 79.17421104 -85.93300274 79.17421104 -91.625 78.1875 C-94.08203125 77.11328125 -94.08203125 77.11328125 -96.4375 75.5 C-97.81808594 74.56414062 -97.81808594 74.56414062 -99.2265625 73.609375 C-100.36147582 72.8050394 -101.49401082 71.9973441 -102.625 71.1875 C-103.36975586 70.65705078 -104.11451172 70.12660156 -104.88183594 69.58007812 C-110.15422898 65.81618114 -115.3986807 62.01506872 -120.625 58.1875 C-132.78851947 64.0713232 -153.44947494 81.5100775 -158.625 94.1875 C-157.48007004 97.6868645 -155.90303449 100.45131798 -153.7265625 103.40234375 C-153.16453125 104.17126953 -152.6025 104.94019531 -152.0234375 105.73242188 C-151.14558594 106.91674805 -151.14558594 106.91674805 -150.25 108.125 C-138.13992499 124.60064893 -138.13992499 124.60064893 -138.24560547 131.01025391 C-139.1122275 135.98357133 -141.89343755 140.4327776 -144.1875 144.875 C-148.62056181 153.71121004 -152.45451903 162.4314613 -155.30493164 171.9050293 C-156.852415 176.82779404 -158.31135887 180.03986306 -162.625 183.1875 C-169.74361132 186.19791957 -177.53712916 187.15014233 -185.125 188.3125 C-187.26086224 188.6455928 -189.39630506 188.98138999 -191.53125 189.3203125 C-192.92827148 189.53518311 -192.92827148 189.53518311 -194.35351562 189.75439453 C-196.64636974 190.0849447 -196.64636974 190.0849447 -198.625 191.1875 C-199.55881146 193.98893439 -199.75143226 195.68403041 -199.75439453 198.57958984 C-199.75754669 199.46415863 -199.76069885 200.34872742 -199.76394653 201.26010132 C-199.7619223 202.21325226 -199.75989807 203.1664032 -199.7578125 204.1484375 C-199.75876923 205.13115631 -199.75972595 206.11387512 -199.76071167 207.12637329 C-199.76139237 209.2059943 -199.75954574 211.28561744 -199.75537109 213.36523438 C-199.75003273 216.5430176 -199.75531392 219.72065875 -199.76171875 222.8984375 C-199.76105772 224.91927114 -199.75977606 226.9401047 -199.7578125 228.9609375 C-199.75983673 229.91003998 -199.76186096 230.85914246 -199.76394653 231.83700562 C-199.76079437 232.72787872 -199.75764221 233.61875183 -199.75439453 234.53662109 C-199.75359894 235.31588959 -199.75280334 236.09515808 -199.75198364 236.89804077 C-199.61309755 239.40209602 -199.16945434 241.74220115 -198.625 244.1875 C-197.2337793 244.37542114 -197.2337793 244.37542114 -195.81445312 244.56713867 C-192.33804265 245.04599206 -188.86492176 245.54187177 -185.39257812 246.04907227 C-183.89613777 246.2641614 -182.39873018 246.47263834 -180.90039062 246.67407227 C-163.87955868 248.97188458 -163.87955868 248.97188458 -158.625 254.1875 C-156.18683019 258.04825778 -154.9487342 262.17953637 -153.55859375 266.5078125 C-152.97271484 268.32925781 -152.97271484 268.32925781 -152.375 270.1875 C-152.17382568 270.81696533 -151.97265137 271.44643066 -151.76538086 272.0949707 C-148.740138 281.25957648 -144.36921914 289.93035126 -139.91015625 298.47265625 C-138.2234386 302.0357832 -138.15272264 304.27434475 -138.625 308.1875 C-141.43194884 314.52008507 -145.07471164 319.88592966 -149.1875 325.4375 C-149.76435547 326.22640625 -150.34121094 327.0153125 -150.93554688 327.828125 C-153.4764812 331.29809759 -156.04143908 334.74915855 -158.625 338.1875 C-151.90049062 353.03603595 -135.53602255 366.67891163 -122.625 376.1875 C-119.16880179 374.92212626 -116.36920697 373.47145314 -113.41015625 371.2890625 C-112.64123047 370.72703125 -111.87230469 370.165 -111.08007812 369.5859375 C-110.29052734 369.00070312 -109.50097656 368.41546875 -108.6875 367.8125 C-106.36021242 366.10187681 -104.03139189 364.39408957 -101.69189453 362.70019531 C-99.97698391 361.44510599 -98.29445874 360.14590593 -96.62109375 358.8359375 C-92.52582223 356.58273727 -89.30438675 355.71571917 -84.625 356.1875 C-80.31591054 357.62460546 -76.35447008 359.62826997 -72.3125 361.6875 C-63.31510851 366.08603985 -54.45022974 369.96828611 -44.85620117 372.8671875 C-39.95274647 374.42000936 -36.84876033 375.96548966 -33.625 380.1875 C-30.33591801 386.99513481 -29.52937138 394.12632119 -28.5 401.5625 C-28.16694458 403.90405758 -27.83115003 406.24522773 -27.4921875 408.5859375 C-27.34894043 409.61380371 -27.20569336 410.64166992 -27.05810547 411.70068359 C-26.74920315 414.17835847 -26.74920315 414.17835847 -25.625 416.1875 C-22.88207901 417.101807 -21.27137983 417.31384328 -18.44824219 417.31689453 C-17.61017029 417.32004669 -16.77209839 417.32319885 -15.90863037 417.32644653 C-14.55393646 417.32341019 -14.55393646 417.32341019 -13.171875 417.3203125 C-12.23829163 417.32126923 -11.30470825 417.32222595 -10.34283447 417.32321167 C-8.36576266 417.32389241 -6.38868861 417.32204551 -4.41162109 417.31787109 C-1.40066428 417.31254539 1.61014173 417.31780722 4.62109375 417.32421875 C6.54427116 417.32355748 8.46744848 417.3222753 10.390625 417.3203125 C11.28565735 417.32233673 12.1806897 417.32436096 13.10284424 417.32644653 C17.96694556 417.30842281 22.57876685 417.00750115 27.375 416.1875 C27.48046143 415.41672119 27.58592285 414.64594238 27.69458008 413.85180664 C28.18339471 410.31658676 28.68534452 406.78334856 29.1875 403.25 C29.35314453 402.03763672 29.51878906 400.82527344 29.68945312 399.57617188 C32.42057598 380.5613731 32.42057598 380.5613731 39.375 375.1875 C43.88790235 373.10462199 48.36666264 371.51583833 53.125 370.0625 C63.29545722 366.82484127 73.030315 362.13519158 82.4230957 357.08666992 C85.55865464 355.6422342 87.95971744 355.84597174 91.375 356.1875 C97.71151275 358.98341855 103.07472548 362.63817162 108.625 366.75 C109.41390625 367.32685547 110.2028125 367.90371094 111.015625 368.49804688 C114.48559759 371.0389812 117.93665855 373.60393908 121.375 376.1875 C136.22353595 369.46299062 149.86641163 353.09852255 159.375 340.1875 C158.11231532 336.73525834 156.66919624 333.95331762 154.4765625 331.0078125 C153.91453125 330.24339844 153.3525 329.47898437 152.7734375 328.69140625 C152.18820312 327.90636719 151.60296875 327.12132812 151 326.3125 C139.42259963 310.72952584 139.42259963 310.72952584 139.73046875 301.5390625 C140.62186398 296.90380729 142.68518334 293.2174404 145.02514648 289.19091797 C147.90626637 284.21816432 150.14553442 279.18291973 152.1875 273.8125 C152.60334351 272.72557861 152.60334351 272.72557861 153.02758789 271.61669922 C154.70126265 267.16406404 156.20973912 262.67766337 157.6171875 258.13378906 C159.38402899 253.59601188 162.41621359 251.61811284 166.71484375 249.6875 C172.54319941 247.58128222 178.63778506 246.90859841 184.75 246.0625 C187.09155758 245.72944458 189.43272773 245.39365003 191.7734375 245.0546875 C192.80130371 244.91144043 193.82916992 244.76819336 194.88818359 244.62060547 C197.36585847 244.31170315 197.36585847 244.31170315 199.375 243.1875 C200.66121558 238.05129392 200.52002042 232.84905769 200.5078125 227.58984375 C200.50876923 226.67795792 200.50972595 225.76607208 200.51071167 224.82655334 C200.51138982 222.90609671 200.50956105 220.98563773 200.50537109 219.06518555 C200.5000115 216.13129521 200.50533166 213.19755752 200.51171875 210.26367188 C200.51105802 208.39322883 200.50977698 206.52278588 200.5078125 204.65234375 C200.51084885 203.34123878 200.51084885 203.34123878 200.51394653 202.00364685 C200.49832372 197.93395321 200.39783451 194.15745897 199.375 190.1875 C197.9837793 189.99957886 197.9837793 189.99957886 196.56445312 189.80786133 C193.08804265 189.32900794 189.61492176 188.83312823 186.14257812 188.32592773 C184.64613777 188.1108386 183.14873018 187.90236166 181.65039062 187.70092773 C164.74334822 185.41847701 164.74334822 185.41847701 159.375 180.1875 C158 177.99609375 158 177.99609375 157.375 175.625 C155.69576934 170.15277026 153.75251751 164.87321971 151.625 159.5625 C151.28533203 158.7055957 150.94566406 157.84869141 150.59570312 156.96582031 C147.97166043 150.43503248 145.05841095 144.07811629 141.81347656 137.83154297 C139.61454009 133.42149062 138.80327471 130.09625252 139.375 125.1875 C140.44921875 122.73046875 140.44921875 122.73046875 142.0625 120.375 C142.68640625 119.45460938 143.3103125 118.53421875 143.953125 117.5859375 C144.7574606 116.45102418 145.5651559 115.31848918 146.375 114.1875 C146.90544922 113.44274414 147.43589844 112.69798828 147.98242188 111.93066406 C151.74631886 106.65827102 155.54743128 101.4138193 159.375 96.1875 C152.17826788 81.29102783 136.52758208 67.87398986 123.375 58.1875 C119.92275834 59.45018468 117.14081762 60.89330376 114.1953125 63.0859375 C113.43089844 63.64796875 112.66648437 64.21 111.87890625 64.7890625 C110.70134766 65.66691406 110.70134766 65.66691406 109.5 66.5625 C93.91702584 78.13990037 93.91702584 78.13990037 84.7265625 77.83203125 C80.09130729 76.94063602 76.4049404 74.87731666 72.37841797 72.53735352 C67.40566432 69.65623363 62.37041973 67.41696558 57 65.375 C56.27538574 65.097771 55.55077148 64.82054199 54.80419922 64.53491211 C50.3509543 62.86100816 45.86316337 61.34903024 41.32128906 59.93310547 C38.00814723 58.66387126 36.44238767 57.04535943 34.375 54.1875 C31.56929021 46.95185919 30.41920162 39.32004817 29.25 31.6875 C28.9169072 29.55163776 28.58111001 27.41619494 28.2421875 25.28125 C28.02731689 23.88422852 28.02731689 23.88422852 27.80810547 22.45898438 C27.4775553 20.16613026 27.4775553 20.16613026 26.375 18.1875 C23.55481304 17.21370948 20.92714514 17.0612198 17.96118164 17.05810547 C17.09670914 17.05495331 16.23223663 17.05180115 15.34156799 17.04855347 C14.41545212 17.0505777 13.48933624 17.05260193 12.53515625 17.0546875 C11.09649452 17.05325241 11.09649452 17.05325241 9.62876892 17.05178833 C7.6022027 17.05110844 5.57563429 17.05294943 3.54907227 17.05712891 C0.45258673 17.06247396 -2.64375338 17.05718046 -5.74023438 17.05078125 C-7.71093782 17.05144218 -9.68164117 17.05272365 -11.65234375 17.0546875 C-13.03848122 17.05165115 -13.03848122 17.05165115 -14.45262146 17.04855347 C-18.63646835 17.06375377 -22.54716039 17.11910284 -26.625 18.1875 Z " fill="#41456F" transform="translate(255.625,38.8125)"/>
<path d="M0 0 C28.58182699 -1.25564716 56.54835361 8.06491427 78.02490234 27.09863281 C78.76869141 27.68773437 79.51248047 28.27683594 80.27880859 28.88378906 C99.69585031 44.6883579 112.93292967 71.33586353 115.63037109 96.04394531 C117.6859425 119.68073753 114.02663307 139.63860864 104.02490234 161.09863281 C100.02490234 161.09863281 100.02490234 161.09863281 97.90600586 159.48144531 C97.16278076 158.73636719 96.41955566 157.99128906 95.65380859 157.22363281 C94.83203125 156.4025 94.01025391 155.58136719 93.16357422 154.73535156 C92.3134375 153.86523438 91.46330078 152.99511719 90.58740234 152.09863281 C89.74113281 151.25945312 88.89486328 150.42027344 88.02294922 149.55566406 C75.13117694 136.53265212 75.13117694 136.53265212 74.97485352 127.06860352 C75.00554932 125.899021 75.03624512 124.72943848 75.06787109 123.52441406 C75.54743813 97.99973578 72.94535707 75.49805954 56.02490234 55.09863281 C55.32494141 54.23625 54.62498047 53.37386719 53.90380859 52.48535156 C39.74000199 35.84729711 18.64377948 26.06398528 -2.97509766 24.09863281 C-20.07286833 22.99388918 -20.07286833 22.99388918 -35.35400391 29.00488281 C-37.28184003 31.08704584 -37.28184003 31.08704584 -37.16259766 34.34863281 C-34.49607948 42.76921653 -26.20059466 48.89501611 -19.94384766 54.84082031 C-18.22880934 56.49943039 -16.51531158 58.15963467 -14.80322266 59.82128906 C-12.1323538 62.41183474 -9.45486185 64.99275529 -6.75048828 67.54833984 C-4.12233988 70.03708791 -1.5310617 72.55963258 1.05615234 75.09082031 C2.27776062 76.2225618 2.27776062 76.2225618 3.52404785 77.37716675 C8.86559754 82.68935205 8.86559754 82.68935205 9.32598877 86.76217651 C8.89616407 91.57626789 7.66152572 96.01976877 5.77490234 100.47363281 C5.37787109 101.45074219 4.98083984 102.42785156 4.57177734 103.43457031 C1.68353995 108.40875694 -2.54274735 110.61311026 -7.72509766 112.78613281 C-8.68931641 113.2025 -9.65353516 113.61886719 -10.64697266 114.04785156 C-11.74525391 114.39460938 -12.84353516 114.74136719 -13.97509766 115.09863281 C-14.60845535 115.31734543 -15.24181305 115.53605804 -15.8943634 115.76139832 C-18.49420713 116.38576369 -20.32096086 116.52566709 -22.97509766 116.09863281 C-27.06329591 113.4191024 -30.28996895 109.92458371 -33.62744141 106.38769531 C-34.61641367 105.37750902 -35.60771079 104.36959401 -36.60121155 103.36386108 C-39.20238367 100.71898233 -41.77254993 98.04593044 -44.33679199 95.36529541 C-46.95515813 92.63750108 -49.59924286 89.93491951 -52.24267578 87.23144531 C-55.2106342 84.19605822 -58.17612842 81.15886989 -61.11839294 78.09854126 C-61.9901265 77.19445526 -62.86186005 76.29036926 -63.76000977 75.35888672 C-64.52784286 74.55867096 -65.29567596 73.7584552 -66.08677673 72.93399048 C-68.48323468 70.60474792 -69.50533554 70.14969391 -72.85009766 69.78613281 C-75.97679604 69.86110234 -75.97679604 69.86110234 -78.22509766 71.53613281 C-82.86163313 78.32534547 -82.32978263 87.30912875 -82.28759766 95.22363281 C-82.28195801 96.32876221 -82.27631836 97.4338916 -82.27050781 98.57250977 C-81.92337045 122.04552591 -73.12836342 142.16247495 -56.43994141 158.70703125 C-42.6174753 171.83837405 -23.75355651 180.94373594 -4.4934082 181.1328125 C-3.29498291 181.09575195 -2.09655762 181.05869141 -0.86181641 181.02050781 C0.48256036 180.99324191 1.82696326 180.96724007 3.17138672 180.94238281 C5.25179671 180.89934153 7.33079526 180.84886314 9.41040039 180.77636719 C20.17714041 180.41871062 27.55950565 181.31446333 35.85131836 188.57275391 C38.88911537 191.41902622 41.7710606 194.40569082 44.64990234 197.41113281 C45.66303386 198.44940608 46.67734994 199.48652483 47.69287109 200.52246094 C50.15065764 203.03471175 52.59212766 205.56212528 55.02490234 208.09863281 C50.83566701 211.47265279 46.49909581 212.92755586 41.46240234 214.66113281 C40.61871094 214.96470703 39.77501953 215.26828125 38.90576172 215.58105469 C28.04538284 219.36610701 17.7470827 220.46498915 6.27490234 220.41113281 C5.03788574 220.40621826 3.80086914 220.40130371 2.52636719 220.39624023 C-26.78842756 220.02031067 -53.59919913 207.32945732 -73.99316406 186.546875 C-84.31076056 175.6594877 -91.11315507 163.83968431 -96.97509766 150.09863281 C-97.39662109 149.16792969 -97.81814453 148.23722656 -98.25244141 147.27832031 C-107.96885527 123.8855956 -106.35052083 93.47500358 -97.22509766 70.22363281 C-84.78701737 41.53230047 -63.33663839 18.94305258 -34.03759766 7.34863281 C-22.91021706 3.0994057 -11.89241019 0.5938855 0 0 Z " fill="#F2F3F6" transform="translate(249.97509765625,145.9013671875)"/>
<path d="M0 0 C16.18717955 -1.42828055 33.6631441 4.24123612 46.18359375 14.54296875 C60.63726718 27.03534378 70.14489095 41.92389656 73 61 C73.24472531 67.21865172 73.04216162 73.41808128 72.78759766 79.63427734 C72.33628402 91.55169247 73.59280622 102.17574797 81.625 111.625 C83.3912544 113.45174257 85.17602764 115.23237462 87 117 C89.4941791 119.41956691 91.98524344 121.84187867 94.46630859 124.27490234 C96.22711856 125.99690658 98.00081295 127.70584181 99.78759766 129.40087891 C100.60276855 130.19413574 101.41793945 130.98739258 102.2578125 131.8046875 C103.37373779 132.87178955 103.37373779 132.87178955 104.51220703 133.96044922 C106 136 106 136 105.84106445 138.12084961 C101.90112802 146.92366259 90.6184207 156.88833522 82 161 C81.28457031 160.26885986 80.56914062 159.53771973 79.83203125 158.78442383 C77.14865372 156.04630963 74.45500168 153.31849383 71.75830078 150.59350586 C70.59764214 149.41785954 69.43970203 148.23952236 68.28466797 147.05834961 C59.5903056 137.78550613 59.5903056 137.78550613 49 131 C48.15405273 130.61231445 47.30810547 130.22462891 46.43652344 129.82519531 C37.08316322 126.13000163 27.90675737 126.7282901 18.07421875 127.1574707 C-1.72290517 127.94890978 -18.02353102 121.84410481 -33.13671875 108.76953125 C-45.25993658 97.0432537 -53.16165945 81.10738796 -54.24609375 64.15234375 C-54.24942666 61.08940165 -54.18557281 58.05679648 -54 55 C-48.95649299 59.19197443 -44.38401882 63.60081122 -39.88671875 68.3671875 C-38.54371507 69.7617637 -37.19926997 71.15495298 -35.85351562 72.546875 C-33.76027352 74.71418151 -31.6759275 76.88733709 -29.61450195 79.08496094 C-27.60347774 81.22362757 -25.56158143 83.32830384 -23.51171875 85.4296875 C-22.60494637 86.41858475 -22.60494637 86.41858475 -21.67985535 87.42745972 C-18.13546973 90.99548075 -15.85737076 92.40085534 -10.74291992 92.44067383 C1.26164298 91.65521435 15.70779197 87.96474974 25 80 C34.00570395 69.52825122 37.67543515 54.84463395 37.53198242 41.26428223 C36.59157874 35.49389789 33.09023802 32.49277591 28.90625 28.671875 C28.08499634 27.87138733 27.26374268 27.07089966 26.41760254 26.24615479 C23.80749467 23.71495889 21.15617328 21.23272464 18.5 18.75 C16.7144417 17.03828666 14.93185346 15.32346939 13.15234375 13.60546875 C10.6589745 11.19920694 8.16194778 8.79870141 5.64123535 6.42108154 C4.53008362 5.37298309 4.53008362 5.37298309 3.39648438 4.30371094 C2.41053284 3.37990631 2.41053284 3.37990631 1.40466309 2.43743896 C0 1 0 1 0 0 Z " fill="#757B93" transform="translate(237,185)"/>
<path d="M0 0 C28.58182699 -1.25564716 56.54835361 8.06491427 78.02490234 27.09863281 C78.76869141 27.68773437 79.51248047 28.27683594 80.27880859 28.88378906 C99.69585031 44.6883579 112.93292967 71.33586353 115.63037109 96.04394531 C117.6859425 119.68073753 114.02663307 139.63860864 104.02490234 161.09863281 C102.70490234 161.09863281 101.38490234 161.09863281 100.02490234 161.09863281 C97.77490234 158.59863281 97.77490234 158.59863281 96.02490234 156.09863281 C96.33943359 155.52757812 96.65396484 154.95652344 96.97802734 154.36816406 C108.46883559 132.59792797 110.86266645 105.78632178 103.70947266 82.20605469 C97.95310162 64.48530048 89.1518071 50.26304301 76.02490234 37.09863281 C74.85701172 35.8959375 74.85701172 35.8959375 73.66552734 34.66894531 C63.78289763 25.08478428 50.8642738 18.7725335 38.02490234 14.09863281 C37.22181641 13.8034375 36.41873047 13.50824219 35.59130859 13.20410156 C11.42314323 5.14804644 -16.31435218 7.91422301 -38.97509766 19.09863281 C-49.77310224 24.56459947 -58.51318773 31.49467644 -66.97509766 40.09863281 C-67.80912109 40.93394531 -68.64314453 41.76925781 -69.50244141 42.62988281 C-89.25609311 63.43030922 -95.55691321 89.75035763 -95.25634766 117.54394531 C-95.0267422 125.57324816 -93.59683422 132.50759164 -90.97509766 140.09863281 C-90.41435547 141.78085937 -90.41435547 141.78085937 -89.84228516 143.49707031 C-80.16662281 170.47358585 -61.60362361 190.4666296 -35.97509766 203.09863281 C-12.09900506 213.6676371 16.3651829 214.55350472 40.77490234 205.34863281 C41.88349609 204.90003906 42.99208984 204.45144531 44.13427734 203.98925781 C48.30478944 202.70428922 48.30478944 202.70428922 51.02490234 204.09863281 C53.27490234 206.66113281 53.27490234 206.66113281 55.02490234 209.09863281 C38.586626 215.79089552 24.30085956 220.49575596 6.27490234 220.41113281 C5.03788574 220.40621826 3.80086914 220.40130371 2.52636719 220.39624023 C-26.78842756 220.02031067 -53.59919913 207.32945732 -73.99316406 186.546875 C-84.31076056 175.6594877 -91.11315507 163.83968431 -96.97509766 150.09863281 C-97.39662109 149.16792969 -97.81814453 148.23722656 -98.25244141 147.27832031 C-107.96885527 123.8855956 -106.35052083 93.47500358 -97.22509766 70.22363281 C-84.78701737 41.53230047 -63.33663839 18.94305258 -34.03759766 7.34863281 C-22.91021706 3.0994057 -11.89241019 0.5938855 0 0 Z " fill="#C1C9D9" transform="translate(249.97509765625,145.9013671875)"/>
</svg>
